<svg xmlns="http://www.w3.org/2000/svg" width="174" height="40" fill="none" xmlns:v="https://vecta.io/nano"><g clip-path="url(#A)" fill="#47c1bd"><path d="M41.36 5.15c-.26.69-1.32 1.13-1.64 1.62s.32.82.32.82h.11l-.09.19h-.78v-2l.82-.81v-.46l-.82.81v-.78l.82-.81h1.54a4.73 4.73 0 0 1-.24 1.37l-.04.05zM40.1 2.48v.78l-.82.81v-.78l.82-.81zm-1.41 0l.47-.47.48.47-.48.47-.47-.47zm.35 1.59l-.81-.81v-.78l.81.81v.78zm0 1.25l-.81-.81v.46l.81.81v2h-.81l-.09-.19h.11s.61-.37.31-.82-1.38-.93-1.64-1.62a4.73 4.73 0 0 1-.24-1.37h1.55l.81.81v.73zM40.33.41h-5.17a.46.46 0 0 0-.46.46v8a.46.46 0 0 0 .46.46h5.12a3.29 3.29 0 0 0 3.29-3.29V3.7A3.29 3.29 0 0 0 40.28.41m-25.41 5.1a.42.42 0 0 1-.43.42h-1.56v-2h1.56a.42.42 0 0 1 .43.42v1.16zm-.11-2.54h-.27-2.42a.18.18 0 0 0-.18.18v2.8H10.4V4.41a1.44 1.44 0 0 0-.95-1.35 1.4 1.4 0 0 0-.47-.08h-1l-.13.06-.41.4-.21.22a.18.18 0 0 0 .13.31h1.7a.4.4 0 0 1 .4.4v1.58h-3V2.67a.18.18 0 0 0-.18-.18h-.62a.18.18 0 0 0-.18.18v2.91.36H2.69h-.1l-.08.15v.62a.19.19 0 0 0 .18.19h.81v.09a.4.4 0 0 1-.41.4H1.43a.4.4 0 0 1-.4-.4V5.1a.19.19 0 0 0-.19-.19H.21a.18.18 0 0 0-.131.056.18.18 0 0 0-.049.134v1.85a1.43 1.43 0 0 0 1.43 1.43h1.6a1.43 1.43 0 0 0 1.42-1.43V6.9h1.8a.23.23 0 0 0 .18-.22v-.25l.43.42.13.06h5.66a.23.23 0 0 0 .2-.15v-.35l.45.44.13.06h1a1.45 1.45 0 0 0 1.44-1.44v-1.1a1.45 1.45 0 0 0-1.1-1.4"/><path d="M24.78 5.51a.42.42 0 0 1-.42.42h-1.57v-2h1.57a.42.42 0 0 1 .42.42v1.16zm-.11-2.54h-.27-2.42a.18.18 0 0 0-.18.18v2.79h-2.28-.11l-.08.15v.62a.19.19 0 0 0 .19.19h.8v.09a.4.4 0 0 1-.4.4h-1.64a.4.4 0 0 1-.4-.4V5.1a.18.18 0 0 0-.011-.072c-.008-.023-.021-.044-.038-.062a.18.18 0 0 0-.131-.057h-.63a.18.18 0 0 0-.169.118c-.008.023-.012.047-.011.072v1.85a1.43 1.43 0 0 0 1.42 1.43h1.6a1.43 1.43 0 0 0 1.37-1.41v-.05h1.26a.21.21 0 0 0 .2-.15v-.35l.44.44.13.06h1a1.44 1.44 0 0 0 1.44-1.44V4.37a1.45 1.45 0 0 0-1.1-1.4m7.86 4.44h-.62a.18.18 0 0 0-.19.18v.63a.18.18 0 0 0 .19.18h.62a.18.18 0 0 0 .18-.18v-.63a.18.18 0 0 0-.18-.18z"/><path d="M29.28 5.93h-1.56a.42.42 0 0 1-.42-.42V4.36a.42.42 0 0 1 .42-.42h1.56v1.99zm3.78-3h-.63a.18.18 0 0 0-.18.18V5.5a.4.4 0 0 1-.114.289.4.4 0 0 1-.286.121h-1.58V3.14a.18.18 0 0 0-.008-.075c-.008-.024-.02-.046-.037-.065a.18.18 0 0 0-.135-.06h-2.41-.27a1.45 1.45 0 0 0-1.1 1.4v1.11a1.43 1.43 0 0 0 .422 1.015 1.43 1.43 0 0 0 1.018.415h1l.13-.05.45-.44v.42a.56.56 0 0 1-.56.56h-.48a.18.18 0 0 0-.172.11.18.18 0 0 0 .042.2l.62.62.12.05a1.42 1.42 0 0 0 1.41-1.4v-.28-.24l.43.42.13.06h1a1.43 1.43 0 0 0 1.43-1.43V3.12a.18.18 0 0 0-.18-.18"/></g><defs><clipPath id="A"><path fill="#fff" transform="translate(0 .46)" d="M0 0h43.58v8.93H0z"/></clipPath></defs></svg>