<svg width="200" height="55" viewBox="0 0 200 55" fill="none" xmlns="http://www.w3.org/2000/svg">
	<g clip-path="url(#clip0_236_316)"  transform="scale(5)">
		<path d="M18.0099 1.21982H17.2899C17.2629 1.21847 17.2358 1.22262 17.2103 1.23206C17.1849 1.2415 17.1617 1.25602 17.142 1.27473C17.1224 1.29343 17.1067 1.31595 17.0961 1.34089C17.0854 1.36583 17.0799 1.39268 17.08 1.41981V2.11982C17.08 2.17551 17.1021 2.22893 17.1414 2.26832C17.1808 2.3077 17.2343 2.32981 17.2899 2.32981H18.0099C18.0656 2.32981 18.1191 2.3077 18.1584 2.26832C18.1978 2.22893 18.2199 2.17551 18.2199 2.11982V1.38981C18.22 1.36268 18.2145 1.33583 18.2038 1.31089C18.1932 1.28595 18.1775 1.26344 18.1579 1.24473C18.1382 1.22602 18.115 1.21151 18.0896 1.20206C18.0641 1.19262 18.037 1.18847 18.0099 1.18983" fill="#274E9B"/>
		<path d="M24.7701 2.87988H24.01C23.9551 2.88233 23.9031 2.90523 23.8643 2.94409C23.8254 2.98296 23.8025 3.03496 23.8 3.08987V7.24988C23.8 7.30557 23.8222 7.35899 23.8615 7.39838C23.9009 7.43776 23.9543 7.45987 24.01 7.45987H24.7401C24.7957 7.45987 24.8491 7.43776 24.8885 7.39838C24.9279 7.35899 24.95 7.30557 24.95 7.24988V3.11987C24.9476 3.06496 24.9247 3.01296 24.8858 2.97409C24.847 2.93523 24.795 2.91233 24.7401 2.90988" fill="#274E9B"/>
		<path d="M15.32 6.31985H13.56C13.4961 6.31987 13.4329 6.30712 13.374 6.28238C13.3151 6.25763 13.2617 6.22139 13.217 6.17575C13.1723 6.13011 13.1372 6.076 13.1136 6.0166C13.0901 5.95721 13.0787 5.8937 13.08 5.82983V4.53986C13.0787 4.47599 13.0901 4.41248 13.1136 4.35309C13.1372 4.29369 13.1723 4.23958 13.217 4.19394C13.2617 4.1483 13.3151 4.11206 13.374 4.08731C13.4329 4.06257 13.4961 4.04982 13.56 4.04984H15.32V6.31985ZM16.23 1.21985H15.53C15.4743 1.21985 15.4209 1.24196 15.3815 1.28134C15.3421 1.32072 15.32 1.37414 15.32 1.42984V2.91983H13.51C13.4103 2.90946 13.3098 2.90946 13.21 2.91983C12.8541 3.00933 12.5385 3.21564 12.3137 3.50571C12.0889 3.79578 11.9679 4.15286 11.97 4.51984V5.78986C11.9687 6.00391 12.0095 6.2161 12.0902 6.41437C12.1709 6.61263 12.2899 6.79308 12.4403 6.94537C12.5908 7.09766 12.7697 7.21881 12.967 7.30194C13.1642 7.38507 13.3759 7.42853 13.59 7.42984H14.67H14.79L15.29 6.91983V7.27985C15.29 7.33554 15.3121 7.38896 15.3515 7.42834C15.3909 7.46773 15.4443 7.48984 15.5 7.48984H16.19C16.2363 7.49014 16.2816 7.47582 16.3193 7.44888C16.357 7.42195 16.3853 7.38378 16.4 7.33984V1.45984C16.4 1.40414 16.3779 1.35072 16.3385 1.31134C16.2991 1.27196 16.2457 1.24985 16.19 1.24985" fill="#274E9B"/>
		<path d="M26.64 4.02988H28.45C28.5139 4.02855 28.5774 4.03998 28.6368 4.06351C28.6962 4.08703 28.7503 4.12216 28.7959 4.16687C28.8416 4.21158 28.8778 4.26495 28.9026 4.32385C28.9273 4.38275 28.94 4.446 28.94 4.50989V5.80988C28.9376 5.93735 28.8865 6.05906 28.7973 6.15015C28.7081 6.24123 28.5874 6.29479 28.46 6.29987H26.65V4.02988H26.64ZM25.71 9.12988H26.43C26.4857 9.12988 26.5391 9.10774 26.5785 9.06836C26.6179 9.02898 26.64 8.97556 26.64 8.91986V7.42987H28.5C28.9236 7.41687 29.3255 7.23941 29.6204 6.93512C29.9154 6.63083 30.0802 6.22364 30.08 5.79987V4.51987C30.0748 4.08308 29.8976 3.66598 29.5868 3.35898C29.2761 3.05198 28.8569 2.87985 28.42 2.87988H27.31L27.18 2.92987L26.67 3.43988V3.11987C26.67 3.06418 26.6479 3.01076 26.6085 2.97137C26.5691 2.93199 26.5157 2.90988 26.46 2.90988H25.76C25.7111 2.90969 25.6634 2.92508 25.6238 2.95386C25.5843 2.98263 25.5549 3.02329 25.54 3.06989V8.93988C25.5387 8.96829 25.5431 8.99667 25.5531 9.02332C25.563 9.04996 25.5783 9.07431 25.5979 9.09488C25.6175 9.11545 25.6411 9.1318 25.6673 9.14297C25.6934 9.15415 25.7216 9.15991 25.75 9.15988" fill="#274E9B"/>
		<path d="M22.17 6.28989H20.37C20.3061 6.2899 20.2429 6.27716 20.184 6.25241C20.1251 6.22767 20.0717 6.19142 20.027 6.14578C19.9823 6.10015 19.9472 6.04603 19.9237 5.98663C19.9001 5.92724 19.8887 5.86374 19.89 5.79987V4.49988C19.89 4.37164 19.9402 4.2485 20.03 4.15689C20.1197 4.06528 20.2418 4.0125 20.37 4.00989H22.18V6.28989H22.17ZM23.08 2.87988H22.37C22.3161 2.88245 22.2652 2.90569 22.2279 2.94479C22.1907 2.9839 22.17 3.03587 22.17 3.08987V3.44986L21.67 2.94986L21.52 2.88986H20.4C19.9615 2.88985 19.5408 3.06338 19.2297 3.37253C18.9187 3.68168 18.7427 4.10136 18.74 4.53989V5.80988C18.7372 6.23538 18.9009 6.6451 19.1961 6.95154C19.4913 7.25798 19.8947 7.43682 20.32 7.44986H22.17V7.70987C22.1221 7.79719 22.051 7.86956 21.9645 7.91898C21.878 7.96839 21.7796 7.99293 21.68 7.98987H20.28C20.2128 7.98705 20.1463 8.00485 20.0895 8.04089C20.0326 8.07694 19.9882 8.12951 19.9621 8.19153C19.936 8.25355 19.9294 8.32207 19.9434 8.38791C19.9573 8.45375 19.991 8.51375 20.04 8.55988L20.49 9.01987L20.73 9.11987H21.73C21.9523 9.11989 22.1724 9.07579 22.3776 8.99011C22.5827 8.90444 22.7688 8.77888 22.9251 8.62076C23.0814 8.46263 23.2047 8.27508 23.2879 8.06894C23.3712 7.8628 23.4127 7.64216 23.41 7.41986V3.03989C23.3969 2.99142 23.3683 2.94857 23.3286 2.91788C23.2889 2.88718 23.2402 2.87032 23.19 2.86987" fill="#274E9B"/>
		<path d="M40.26 3.03989C40.247 2.99409 40.2195 2.95372 40.1817 2.92487C40.1438 2.89602 40.0976 2.88024 40.05 2.87988H39.34C39.2843 2.87988 39.2309 2.90199 39.1915 2.94138C39.1521 2.98076 39.13 3.03418 39.13 3.08987V6.28989H37.33C37.2018 6.28991 37.0786 6.23964 36.987 6.1499C36.8954 6.06016 36.8426 5.93809 36.84 5.80988V3.11987C36.8376 3.06496 36.8147 3.01296 36.7758 2.97409C36.7369 2.93523 36.6849 2.91233 36.63 2.90988H35.91C35.8551 2.91233 35.8031 2.93523 35.7642 2.97409C35.7254 3.01296 35.7025 3.06496 35.7 3.11987V5.83987C35.6933 6.05106 35.7293 6.26145 35.8058 6.4584C35.8823 6.65536 35.9977 6.83485 36.1453 6.98611C36.2928 7.13738 36.4694 7.25731 36.6643 7.33871C36.8593 7.42012 37.0687 7.46132 37.28 7.45987H39.13L39.06 7.70987C39.0178 7.79823 38.951 7.87259 38.8676 7.92401C38.7843 7.97544 38.6879 8.00177 38.59 7.99988H37.17C37.1036 7.99917 37.0386 8.01849 36.9834 8.05533C36.9281 8.09217 36.8853 8.1448 36.8605 8.20636C36.8356 8.26792 36.8299 8.33554 36.8441 8.40039C36.8583 8.46524 36.8917 8.52433 36.94 8.56989L37.39 9.02988C37.4553 9.09115 37.5405 9.12668 37.63 9.12988H38.63C38.8242 9.12841 39.0169 9.09461 39.2 9.02988C39.5283 8.9115 39.8116 8.69383 40.0105 8.4071C40.2094 8.12038 40.3141 7.77882 40.31 7.42987V3.11987L40.26 3.03989Z" fill="#274E9B"/>
		<path d="M18.0099 2.87988H17.2899C17.2343 2.87988 17.1808 2.90199 17.1414 2.94138C17.1021 2.98076 17.08 3.03418 17.08 3.08987V7.24988C17.08 7.30557 17.1021 7.35899 17.1414 7.39838C17.1808 7.43776 17.2343 7.45987 17.2899 7.45987H18.0099C18.0656 7.45987 18.1191 7.43776 18.1584 7.39838C18.1978 7.35899 18.2199 7.30557 18.2199 7.24988V3.11987C18.2199 3.06418 18.1978 3.01076 18.1584 2.97137C18.1191 2.93199 18.0656 2.90988 18.0099 2.90988" fill="#274E9B"/>
		<path d="M24.7701 1.21982H24.01C23.956 1.21976 23.9041 1.2405 23.865 1.27774C23.8259 1.31499 23.8026 1.36586 23.8 1.4198V2.11981C23.8 2.17551 23.8222 2.22893 23.8615 2.26831C23.9009 2.30769 23.9543 2.3298 24.01 2.3298H24.7401C24.7721 2.3394 24.806 2.34118 24.8389 2.33502C24.8718 2.32886 24.9027 2.31492 24.9291 2.29437C24.9556 2.27383 24.9767 2.24729 24.9908 2.21692C25.0048 2.18655 25.0114 2.15325 25.01 2.11981V1.3898C25.0075 1.33586 24.9842 1.28499 24.9451 1.24774C24.906 1.2105 24.8541 1.18976 24.8 1.18982" fill="#274E9B"/>
		<path d="M34.01 6.30983H32.21C32.0801 6.30983 31.9554 6.2582 31.8635 6.16631C31.7716 6.07442 31.72 5.9498 31.72 5.81984V4.50984C31.72 4.3816 31.7702 4.25844 31.86 4.16683C31.9497 4.07522 32.0718 4.02244 32.2 4.01982H34.01V6.30983ZM35.16 3.08983C35.1576 3.03492 35.1347 2.98291 35.0958 2.94405C35.0569 2.90518 35.0049 2.88228 34.95 2.87984H32.16C32.0569 2.86948 31.9531 2.86948 31.85 2.87984C31.4885 2.96355 31.1662 3.16736 30.9355 3.45796C30.7048 3.74857 30.5795 4.10879 30.58 4.47982V5.75984C30.58 6.2001 30.7549 6.62233 31.0662 6.93364C31.3775 7.24495 31.7998 7.41982 32.24 7.41982H33.35H33.48L33.99 6.89983V7.26982C33.99 7.32552 34.0121 7.37894 34.0515 7.41832C34.0909 7.45771 34.1443 7.47982 34.2 7.47982H34.9C34.9491 7.48134 34.9974 7.46779 35.0386 7.44097C35.0797 7.41414 35.1116 7.37535 35.13 7.32982V3.11983L35.16 3.08983Z" fill="#274E9B"/>
		<path d="M6.48005 0.119804H0.480046C0.410909 0.119792 0.342472 0.133576 0.278722 0.160332C0.214972 0.187087 0.157189 0.226277 0.108769 0.275627C0.06035 0.324978 0.0222454 0.383498 -0.00329112 0.447746C-0.0288276 0.511994 -0.0412723 0.580679 -0.0399427 0.649803V9.7698C-0.0399427 9.91036 0.0158754 10.0452 0.11527 10.1446C0.214664 10.244 0.349491 10.2998 0.490056 10.2998H6.44004C7.44348 10.2998 8.40598 9.90189 9.11646 9.19329C9.82694 8.48469 10.2274 7.52324 10.23 6.5198V3.8698C10.2221 2.86637 9.81656 1.90703 9.10233 1.20217C8.3881 0.497315 7.4235 0.104468 6.42005 0.109795" fill="#274E9B"/>
		<path d="M7.48999 3.81989H4.36997C4.16473 3.82122 3.96129 3.78176 3.77143 3.70383C3.58156 3.6259 3.40904 3.51106 3.26392 3.36594C3.11879 3.22081 3.00395 3.0483 2.92603 2.85843C2.8481 2.66856 2.80864 2.46512 2.80997 2.25989V1.83988H5.92999C6.13438 1.83856 6.33701 1.87768 6.52622 1.95499C6.71543 2.03229 6.88748 2.14625 7.03247 2.29032C7.17746 2.43438 7.29252 2.6057 7.37103 2.7944C7.44955 2.98311 7.49 3.18547 7.48999 3.38986V3.81989Z" fill="white"/>
		<path d="M7.48996 4.23979V4.9998C7.48732 5.32163 7.3576 5.62936 7.12909 5.856C6.90058 6.08263 6.5918 6.2098 6.26996 6.20979H2.80994V5.44978C2.80993 5.29003 2.84158 5.13188 2.90302 4.98442C2.96445 4.83696 3.05446 4.70314 3.16788 4.59065C3.2813 4.47816 3.41588 4.38924 3.56384 4.32902C3.7118 4.2688 3.8702 4.23847 4.02994 4.23979H7.48996Z" fill="white"/>
		<path d="M4.77998 4.23987V6.96988C4.7813 7.12962 4.75099 7.28804 4.69078 7.436C4.63056 7.58396 4.54164 7.71852 4.42915 7.83194C4.31666 7.94536 4.18281 8.0354 4.03535 8.09683C3.88789 8.15826 3.72973 8.18989 3.56999 8.18988H2.80998V5.45987C2.80866 5.30013 2.83899 5.1417 2.89921 4.99374C2.95943 4.84578 3.04835 4.71123 3.16084 4.59781C3.27333 4.48439 3.40715 4.39435 3.55461 4.33292C3.70207 4.27148 3.86026 4.23986 4.02 4.23987H4.77998Z" fill="white"/>
	</g>
	<defs>
		<clipPath id="clip0_236_316">
			<rect width="40.28" height="10.2" fill="white" transform="translate(0 0.0698242)"/>
		</clipPath>
	</defs>
</svg>
