<?xml version="1.0" encoding="utf-8"?>
<!-- Generator: Adobe Illustrator 26.0.2, SVG Export Plug-In . SVG Version: 6.00 Build 0)  -->
<svg version="1.1" id="Layer_1" xmlns="http://www.w3.org/2000/svg" xmlns:xlink="http://www.w3.org/1999/xlink" x="0px" y="0px"
     viewBox="0 0 41.68 10.38" style="enable-background:new 0 0 41.68 10.38;" xml:space="preserve">
<style type="text/css">
	.st0{fill:#7D4C9D;}

		.st1{clip-path:url(#SVGID_00000139985228966785404910000016958817758587497406_);fill:url(#SVGID_00000037692395935472356780000004246547617900289170_);}
</style>
    <g>
	<g>
		<path class="st0" d="M40.28,1.84c-0.01,0-0.02,0-0.03,0l-0.81,0.28c-0.09,0.03-0.16,0.07-0.21,0.1c-0.05,0.04-0.07,0.09-0.07,0.16
			l0,0.7h-0.77c-0.18,0-0.27,0.09-0.27,0.27v0.68c0,0.19,0.09,0.29,0.27,0.29h0.77l0,2.99c0,0.18,0.09,0.27,0.27,0.27h0.8
			c0.09,0,0.16-0.02,0.22-0.07c0.05-0.05,0.08-0.11,0.08-0.2l0-2.99h0.89c0.08,0,0.14-0.02,0.18-0.07c0.05-0.05,0.07-0.12,0.07-0.22
			V3.37c0-0.09-0.02-0.16-0.07-0.2C41.56,3.12,41.5,3.1,41.42,3.1h-0.89l0-0.98c0-0.08-0.01-0.15-0.04-0.2s-0.09-0.08-0.18-0.08
			H40.28z M15.2,2.34c-0.09,0-0.15,0.05-0.18,0.14l-0.97,3.22l-0.96-3.22C13.06,2.38,13,2.34,12.91,2.34h-1.23
			c-0.05,0-0.09,0.02-0.12,0.05c-0.03,0.03-0.04,0.07-0.05,0.11l-0.51,4.96c0,0.1,0.05,0.16,0.15,0.16h1c0.11,0,0.17-0.05,0.17-0.16
			l0.31-2.73l0.8,2.75c0,0.03,0.02,0.06,0.05,0.09c0.03,0.03,0.06,0.05,0.09,0.05h0.93c0.03,0,0.06-0.02,0.09-0.05
			c0.03-0.03,0.05-0.06,0.05-0.09l0.8-2.76l0.31,2.74c0,0.1,0.06,0.16,0.17,0.16h1c0.1,0,0.16-0.05,0.16-0.14V7.45
			c-0.08-0.83-0.17-1.66-0.25-2.48c-0.09-0.82-0.17-1.65-0.25-2.48c0-0.04-0.02-0.08-0.06-0.11c-0.03-0.03-0.07-0.04-0.12-0.04H15.2
			z M24.45,3.2c-0.27,0.12-0.51,0.28-0.71,0.49c-0.2,0.21-0.35,0.46-0.46,0.74c-0.11,0.28-0.17,0.59-0.17,0.91
			c0,0.33,0.06,0.63,0.17,0.9c0.11,0.27,0.27,0.51,0.46,0.7c0.2,0.19,0.43,0.35,0.71,0.46c0.27,0.11,0.57,0.16,0.89,0.16
			c0.14,0,0.27-0.02,0.38-0.05c0.11-0.03,0.21-0.08,0.29-0.13c0.09-0.06,0.16-0.12,0.24-0.19c0.07-0.07,0.14-0.14,0.21-0.22v0.05
			c0,0.01,0,0.02,0,0.03c0,0.01,0,0.02,0,0.03v0.05c0,0.06,0,0.12-0.01,0.18c-0.01,0.06-0.02,0.11-0.03,0.16
			c-0.03,0.1-0.08,0.2-0.16,0.28c-0.08,0.08-0.17,0.15-0.27,0.2c-0.1,0.06-0.21,0.1-0.32,0.13c-0.12,0.03-0.23,0.04-0.33,0.04
			c-0.06,0-0.14,0-0.21-0.01c-0.08-0.01-0.16-0.02-0.24-0.04C24.8,8.03,24.72,8,24.64,7.97c-0.08-0.03-0.14-0.08-0.2-0.14
			c-0.08-0.06-0.14-0.09-0.2-0.09c-0.03,0-0.06,0.01-0.09,0.03c-0.03,0.02-0.06,0.04-0.09,0.08l-0.34,0.47
			c-0.05,0.07-0.07,0.13-0.07,0.19c0,0.05,0.01,0.09,0.04,0.13c0.02,0.04,0.05,0.07,0.09,0.1c0.1,0.09,0.22,0.17,0.36,0.24
			c0.14,0.07,0.28,0.13,0.42,0.17s0.29,0.08,0.44,0.1c0.15,0.02,0.28,0.03,0.41,0.03c0.33,0,0.64-0.05,0.92-0.16
			c0.29-0.1,0.53-0.26,0.74-0.45c0.21-0.2,0.37-0.44,0.5-0.73c0.12-0.29,0.18-0.62,0.18-0.99V3.34c0-0.04-0.01-0.08-0.02-0.11
			c-0.02-0.03-0.04-0.06-0.07-0.08c-0.03-0.02-0.06-0.04-0.09-0.05c-0.03-0.01-0.07-0.02-0.1-0.02h-0.53
			c-0.05,0-0.09,0.01-0.12,0.02c-0.03,0.01-0.05,0.03-0.07,0.05c-0.02,0.02-0.03,0.05-0.05,0.08c-0.01,0.03-0.02,0.07-0.04,0.11
			l-0.1,0.32c-0.07-0.09-0.15-0.17-0.23-0.25c-0.08-0.08-0.17-0.15-0.27-0.2c-0.1-0.06-0.21-0.1-0.33-0.14
			c-0.12-0.03-0.25-0.05-0.4-0.05C25.02,3.02,24.72,3.08,24.45,3.2 M24.99,6.37c-0.13-0.06-0.24-0.13-0.32-0.23
			c-0.09-0.1-0.16-0.22-0.21-0.35c-0.05-0.14-0.07-0.28-0.07-0.44c0-0.15,0.02-0.3,0.07-0.43c0.05-0.14,0.12-0.26,0.21-0.36
			c0.09-0.1,0.2-0.18,0.32-0.24c0.13-0.06,0.27-0.09,0.42-0.09c0.15,0,0.29,0.03,0.43,0.09c0.13,0.06,0.25,0.14,0.35,0.23
			c0.1,0.1,0.18,0.21,0.24,0.34c0.06,0.13,0.09,0.27,0.1,0.41v0.12c-0.01,0.15-0.04,0.29-0.1,0.42c-0.06,0.13-0.14,0.24-0.24,0.33
			c-0.1,0.09-0.22,0.17-0.35,0.22c-0.13,0.05-0.28,0.08-0.43,0.08C25.26,6.46,25.12,6.43,24.99,6.37 M35.21,3.11
			c-0.19,0.06-0.37,0.14-0.54,0.24c-0.17,0.1-0.32,0.22-0.45,0.37c-0.13,0.14-0.25,0.3-0.34,0.47c-0.09,0.17-0.17,0.35-0.22,0.55
			c-0.05,0.2-0.08,0.4-0.08,0.6c0,0.33,0.06,0.64,0.19,0.93c0.13,0.28,0.3,0.53,0.52,0.74c0.22,0.21,0.47,0.37,0.76,0.49
			c0.29,0.12,0.59,0.18,0.92,0.18c0.29,0,0.57-0.05,0.83-0.16c0.26-0.11,0.49-0.26,0.7-0.45c0.04-0.03,0.07-0.06,0.09-0.09
			c0.03-0.03,0.04-0.08,0.04-0.12c0-0.03,0-0.05-0.01-0.08c-0.01-0.02-0.02-0.05-0.05-0.08L37.2,6.27
			c-0.04-0.04-0.08-0.07-0.11-0.09C37.06,6.15,37.03,6.14,37,6.14s-0.06,0.01-0.09,0.02c-0.03,0.02-0.06,0.04-0.1,0.07
			c-0.04,0.04-0.1,0.08-0.17,0.12c-0.07,0.04-0.15,0.07-0.23,0.1c-0.08,0.03-0.17,0.05-0.26,0.07c-0.09,0.02-0.18,0.03-0.26,0.03
			c-0.09,0-0.2-0.01-0.3-0.04c-0.11-0.03-0.21-0.07-0.3-0.13c-0.09-0.06-0.18-0.14-0.25-0.24c-0.07-0.1-0.12-0.23-0.14-0.38h2.55
			c0.15,0,0.26-0.01,0.34-0.03c0.08-0.02,0.13-0.05,0.17-0.1c0.03-0.05,0.05-0.11,0.06-0.19c0-0.08,0.01-0.18,0.01-0.3
			c0-0.28-0.01-0.33-0.08-0.55c-0.05-0.18-0.13-0.35-0.23-0.5c-0.1-0.16-0.21-0.3-0.35-0.43c-0.13-0.13-0.28-0.25-0.45-0.34
			c-0.16-0.09-0.34-0.17-0.52-0.22c-0.18-0.05-0.37-0.08-0.57-0.08C35.61,3.03,35.41,3.06,35.21,3.11 M35.09,4.52
			c0.06-0.08,0.13-0.15,0.2-0.21c0.08-0.06,0.16-0.11,0.24-0.15c0.09-0.04,0.18-0.06,0.27-0.06c0.13,0,0.24,0.02,0.34,0.05
			c0.1,0.03,0.18,0.08,0.26,0.14c0.07,0.06,0.14,0.13,0.2,0.21c0.06,0.08,0.11,0.16,0.16,0.26h-1.81
			C34.98,4.68,35.03,4.6,35.09,4.52 M18.94,3.21c-0.28,0.12-0.53,0.28-0.73,0.49C18,3.91,17.83,4.16,17.71,4.44
			c-0.12,0.28-0.18,0.59-0.18,0.92c0,0.22,0.03,0.43,0.08,0.63c0.05,0.2,0.13,0.39,0.23,0.56c0.1,0.17,0.22,0.33,0.36,0.47
			c0.14,0.14,0.29,0.26,0.47,0.36c0.17,0.1,0.36,0.18,0.55,0.23c0.2,0.05,0.4,0.08,0.62,0.08c0.12,0,0.24-0.01,0.35-0.04
			c0.11-0.03,0.22-0.07,0.32-0.12s0.19-0.1,0.27-0.16C20.86,7.3,20.93,7.24,21,7.17l0.05,0.16c0.01,0.04,0.03,0.08,0.04,0.11
			c0.01,0.03,0.03,0.06,0.05,0.09c0.02,0.02,0.04,0.04,0.07,0.05c0.03,0.01,0.07,0.02,0.12,0.02h0.7c0.03,0,0.06,0,0.09-0.01
			c0.04-0.01,0.07-0.02,0.09-0.05c0.03-0.02,0.06-0.05,0.07-0.09c0.01-0.04,0.02-0.07,0.02-0.12v-4c0-0.04-0.01-0.08-0.02-0.11
			c-0.01-0.03-0.04-0.06-0.07-0.09c-0.03-0.03-0.06-0.04-0.09-0.05c-0.04-0.01-0.07-0.01-0.09-0.01H21.5c-0.05,0-0.08,0-0.11,0.01
			c-0.03,0.01-0.05,0.02-0.07,0.04c-0.02,0.02-0.03,0.04-0.05,0.08c-0.02,0.04-0.04,0.08-0.06,0.14l-0.1,0.32
			c-0.06-0.09-0.14-0.18-0.22-0.26c-0.09-0.08-0.18-0.15-0.29-0.2c-0.11-0.06-0.22-0.1-0.35-0.14c-0.13-0.03-0.26-0.05-0.41-0.05
			C19.52,3.03,19.22,3.09,18.94,3.21 M19.41,6.38c-0.13-0.06-0.23-0.14-0.32-0.24c-0.09-0.1-0.16-0.22-0.21-0.35
			c-0.05-0.14-0.07-0.28-0.07-0.44c0-0.15,0.02-0.3,0.07-0.43c0.05-0.14,0.12-0.26,0.21-0.36c0.09-0.1,0.2-0.19,0.32-0.25
			c0.13-0.06,0.27-0.09,0.42-0.09c0.16,0,0.31,0.03,0.44,0.09c0.14,0.06,0.25,0.14,0.35,0.25c0.1,0.1,0.18,0.22,0.24,0.36
			c0.06,0.14,0.09,0.28,0.09,0.43c0,0.16-0.03,0.3-0.09,0.44c-0.06,0.14-0.14,0.25-0.24,0.35c-0.1,0.1-0.22,0.18-0.35,0.24
			c-0.14,0.06-0.28,0.09-0.44,0.09C19.68,6.47,19.54,6.44,19.41,6.38 M30.65,3.09c-0.15,0.04-0.29,0.09-0.41,0.16
			c-0.12,0.06-0.22,0.13-0.29,0.21c-0.08,0.08-0.14,0.15-0.17,0.23l-0.07-0.31c-0.01-0.04-0.02-0.07-0.04-0.1
			c-0.01-0.03-0.03-0.06-0.05-0.09c-0.02-0.03-0.05-0.05-0.08-0.06c-0.03-0.02-0.07-0.02-0.11-0.02h-0.54c-0.03,0-0.06,0-0.1,0.01
			c-0.03,0.01-0.07,0.02-0.1,0.05l0.02-0.01c-0.04,0.02-0.06,0.05-0.08,0.09c-0.02,0.04-0.03,0.08-0.03,0.12v3.97
			c0,0.08,0.02,0.15,0.07,0.2c0.04,0.05,0.12,0.07,0.22,0.07h0.8c0.04,0,0.07,0,0.09-0.01c0.03-0.01,0.06-0.02,0.09-0.04
			c0.03-0.02,0.05-0.05,0.07-0.09c0.02-0.04,0.02-0.08,0.02-0.12V5.04c0.01-0.11,0.04-0.21,0.09-0.3c0.05-0.09,0.11-0.17,0.19-0.24
			c0.07-0.07,0.16-0.12,0.24-0.16c0.09-0.04,0.18-0.06,0.26-0.06c0.1,0,0.2,0.02,0.29,0.06c0.1,0.04,0.18,0.1,0.26,0.17
			c0.08,0.07,0.14,0.15,0.18,0.24c0.05,0.09,0.07,0.19,0.07,0.29v2.31c0,0.1,0.02,0.17,0.06,0.2c0.04,0.03,0.11,0.05,0.21,0.05h0.82
			c0.09,0,0.15-0.02,0.19-0.07c0.04-0.05,0.06-0.11,0.06-0.2V5.01c0-0.27-0.04-0.53-0.12-0.77C32.69,4,32.58,3.79,32.43,3.61
			c-0.15-0.18-0.33-0.32-0.54-0.42c-0.21-0.1-0.45-0.16-0.72-0.16C30.98,3.03,30.81,3.05,30.65,3.09"/>
	</g>
        <g>
		<defs>
			<path id="SVGID_1_" d="M2.32,5.23L0,5.75v3.34c0,0.97,1.01,1.59,1.85,1.13l2.82-1.55L3.73,6.02c-0.18-0.5-0.64-0.82-1.15-0.82
				C2.5,5.19,2.41,5.2,2.32,5.23 M5.43,4.3C4.86,4.51,4.53,5.13,4.66,5.74l0.57,2.63l3.73-2.05c0.88-0.49,0.88-1.78,0-2.27L7.8,3.42
				L5.43,4.3z M3.75,2.56c0.21,0.59,0.81,0.93,1.41,0.79l1.78-0.4L3.15,0.87L3.75,2.56z M0,1.29v3.75l2.05-0.76
				c0.58-0.21,0.91-0.83,0.78-1.44L2.3,0.4L1.85,0.15C1.66,0.05,1.46,0,1.26,0C0.6,0,0,0.54,0,1.29"/>
		</defs>
            <clipPath id="SVGID_00000155108920688680446990000011871584167216247180_">
			<use xlink:href="#SVGID_1_"  style="overflow:visible;"/>
		</clipPath>

            <linearGradient id="SVGID_00000102531692566518595360000007069834717790572455_" gradientUnits="userSpaceOnUse" x1="-923.8292" y1="523.6975" x2="-923.3192" y2="523.6975" gradientTransform="matrix(0 -29.1218 -29.1218 0 15255.9229 -26888.6934)">
			<stop  offset="0" style="stop-color:#7D4C9D"/>
                <stop  offset="0.3096" style="stop-color:#7D4C9D"/>
                <stop  offset="0.6647" style="stop-color:#DF3C95"/>
                <stop  offset="1" style="stop-color:#DF3C95"/>
		</linearGradient>

            <rect x="0" y="0" style="clip-path:url(#SVGID_00000155108920688680446990000011871584167216247180_);fill:url(#SVGID_00000102531692566518595360000007069834717790572455_);" width="9.84" height="10.69"/>
	</g>
</g>
</svg>
