<?xml version="1.0" encoding="utf-8"?>
<!-- Generator: Adobe Illustrator 26.0.2, SVG Export Plug-In . SVG Version: 6.00 Build 0)  -->
<svg version="1.1" id="Layer_1" xmlns="http://www.w3.org/2000/svg" xmlns:xlink="http://www.w3.org/1999/xlink" x="0px" y="0px"
     viewBox="0 0 198.84 53.06" style="enable-background:new 0 0 198.84 53.06;" xml:space="preserve">
<style type="text/css">
	.st0{fill:#293473;}
	.st1{fill:#F27228;}
	.st2{clip-path:url(#SVGID_00000109710598033884099230000008914510496632604859_);fill:#7D4C9D;}

		.st3{clip-path:url(#SVGID_00000154399375073418002900000015496153638113409174_);fill:url(#SVGID_00000090271138317360240980000013562543619903240622_);}
	.st4{fill:#606060;}
	.st5{clip-path:url(#SVGID_00000029007819824578988630000003135953995876384927_);fill:#F9DF2C;}
	.st6{clip-path:url(#SVGID_00000029007819824578988630000003135953995876384927_);fill:#F9DE2C;}
	.st7{clip-path:url(#SVGID_00000029007819824578988630000003135953995876384927_);fill:#F9DD2D;}
	.st8{clip-path:url(#SVGID_00000029007819824578988630000003135953995876384927_);fill:#F9DC2D;}
	.st9{clip-path:url(#SVGID_00000029007819824578988630000003135953995876384927_);fill:#F9DC2E;}
	.st10{clip-path:url(#SVGID_00000029007819824578988630000003135953995876384927_);fill:#F9DB2E;}
	.st11{clip-path:url(#SVGID_00000029007819824578988630000003135953995876384927_);fill:#F9DA2E;}
	.st12{clip-path:url(#SVGID_00000029007819824578988630000003135953995876384927_);fill:#F9D92E;}
	.st13{clip-path:url(#SVGID_00000029007819824578988630000003135953995876384927_);fill:#F9D82F;}
	.st14{clip-path:url(#SVGID_00000029007819824578988630000003135953995876384927_);fill:#F9D830;}
	.st15{clip-path:url(#SVGID_00000029007819824578988630000003135953995876384927_);fill:#F9D730;}
	.st16{clip-path:url(#SVGID_00000029007819824578988630000003135953995876384927_);fill:#F9D630;}
	.st17{clip-path:url(#SVGID_00000029007819824578988630000003135953995876384927_);fill:#F9D530;}
	.st18{clip-path:url(#SVGID_00000029007819824578988630000003135953995876384927_);fill:#F9D431;}
	.st19{clip-path:url(#SVGID_00000029007819824578988630000003135953995876384927_);fill:#F9D432;}
	.st20{clip-path:url(#SVGID_00000029007819824578988630000003135953995876384927_);fill:#F9D332;}
	.st21{clip-path:url(#SVGID_00000029007819824578988630000003135953995876384927_);fill:#F9D232;}
	.st22{clip-path:url(#SVGID_00000029007819824578988630000003135953995876384927_);fill:#FAD231;}
	.st23{clip-path:url(#SVGID_00000029007819824578988630000003135953995876384927_);fill:#F9D133;}
	.st24{clip-path:url(#SVGID_00000029007819824578988630000003135953995876384927_);fill:#F9D033;}
	.st25{clip-path:url(#SVGID_00000029007819824578988630000003135953995876384927_);fill:#F9CF33;}
	.st26{clip-path:url(#SVGID_00000029007819824578988630000003135953995876384927_);fill:#F9CE33;}
	.st27{clip-path:url(#SVGID_00000029007819824578988630000003135953995876384927_);fill:#F9CD33;}
	.st28{clip-path:url(#SVGID_00000029007819824578988630000003135953995876384927_);fill:#FACD34;}
	.st29{clip-path:url(#SVGID_00000029007819824578988630000003135953995876384927_);fill:#F9CC34;}
	.st30{clip-path:url(#SVGID_00000029007819824578988630000003135953995876384927_);fill:#F9CB34;}
	.st31{clip-path:url(#SVGID_00000029007819824578988630000003135953995876384927_);fill:#F9CA34;}
	.st32{clip-path:url(#SVGID_00000029007819824578988630000003135953995876384927_);fill:#F9C936;}
	.st33{clip-path:url(#SVGID_00000029007819824578988630000003135953995876384927_);fill:#FAC835;}
	.st34{clip-path:url(#SVGID_00000029007819824578988630000003135953995876384927_);fill:#FAC735;}
	.st35{clip-path:url(#SVGID_00000029007819824578988630000003135953995876384927_);fill:#F9C735;}
	.st36{clip-path:url(#SVGID_00000029007819824578988630000003135953995876384927_);fill:#F9C635;}
	.st37{clip-path:url(#SVGID_00000029007819824578988630000003135953995876384927_);fill:#F9C537;}
	.st38{clip-path:url(#SVGID_00000029007819824578988630000003135953995876384927_);fill:#F9C437;}
	.st39{clip-path:url(#SVGID_00000029007819824578988630000003135953995876384927_);fill:#F9C337;}
	.st40{clip-path:url(#SVGID_00000029007819824578988630000003135953995876384927_);fill:#FAC336;}
	.st41{clip-path:url(#SVGID_00000029007819824578988630000003135953995876384927_);fill:#FAC238;}
	.st42{clip-path:url(#SVGID_00000029007819824578988630000003135953995876384927_);fill:#FAC138;}
	.st43{clip-path:url(#SVGID_00000029007819824578988630000003135953995876384927_);fill:#F9C138;}
	.st44{clip-path:url(#SVGID_00000029007819824578988630000003135953995876384927_);fill:#F9C038;}
	.st45{clip-path:url(#SVGID_00000029007819824578988630000003135953995876384927_);fill:#F9BF38;}
	.st46{clip-path:url(#SVGID_00000029007819824578988630000003135953995876384927_);fill:#F9BE38;}
	.st47{clip-path:url(#SVGID_00000029007819824578988630000003135953995876384927_);fill:#FABE38;}
	.st48{clip-path:url(#SVGID_00000029007819824578988630000003135953995876384927_);fill:#FABD38;}
	.st49{clip-path:url(#SVGID_00000029007819824578988630000003135953995876384927_);fill:#FABC38;}
	.st50{clip-path:url(#SVGID_00000029007819824578988630000003135953995876384927_);fill:#FABB39;}
	.st51{clip-path:url(#SVGID_00000029007819824578988630000003135953995876384927_);fill:#FABB3A;}
	.st52{clip-path:url(#SVGID_00000029007819824578988630000003135953995876384927_);fill:#FABA3A;}
	.st53{clip-path:url(#SVGID_00000029007819824578988630000003135953995876384927_);fill:#FBBA39;}
	.st54{clip-path:url(#SVGID_00000029007819824578988630000003135953995876384927_);fill:#FBB939;}
	.st55{clip-path:url(#SVGID_00000029007819824578988630000003135953995876384927_);fill:#FBB839;}
	.st56{clip-path:url(#SVGID_00000029007819824578988630000003135953995876384927_);fill:#FAB739;}
	.st57{clip-path:url(#SVGID_00000029007819824578988630000003135953995876384927_);fill:#FAB73A;}
	.st58{clip-path:url(#SVGID_00000029007819824578988630000003135953995876384927_);fill:#FAB63A;}
	.st59{clip-path:url(#SVGID_00000029007819824578988630000003135953995876384927_);fill:#FAB53A;}
	.st60{clip-path:url(#SVGID_00000029007819824578988630000003135953995876384927_);fill:#FAB43A;}
	.st61{clip-path:url(#SVGID_00000029007819824578988630000003135953995876384927_);fill:#FBB43A;}
	.st62{clip-path:url(#SVGID_00000029007819824578988630000003135953995876384927_);fill:#FBB33A;}
	.st63{clip-path:url(#SVGID_00000029007819824578988630000003135953995876384927_);fill:#FBB33B;}
	.st64{clip-path:url(#SVGID_00000029007819824578988630000003135953995876384927_);fill:#FBB23B;}
	.st65{clip-path:url(#SVGID_00000029007819824578988630000003135953995876384927_);fill:#FBB13B;}
	.st66{clip-path:url(#SVGID_00000029007819824578988630000003135953995876384927_);fill:#FBB03B;}
	.st67{clip-path:url(#SVGID_00000029007819824578988630000003135953995876384927_);fill:#FAAF3B;}
	.st68{clip-path:url(#SVGID_00000075852819912248418830000004251274554332285596_);fill:#F9EC23;}
	.st69{clip-path:url(#SVGID_00000075852819912248418830000004251274554332285596_);fill:#FAEB24;}
	.st70{clip-path:url(#SVGID_00000075852819912248418830000004251274554332285596_);fill:#F9EA25;}
	.st71{clip-path:url(#SVGID_00000075852819912248418830000004251274554332285596_);fill:#F9E925;}
	.st72{clip-path:url(#SVGID_00000075852819912248418830000004251274554332285596_);fill:#F9E825;}
	.st73{clip-path:url(#SVGID_00000075852819912248418830000004251274554332285596_);fill:#F9E726;}
	.st74{clip-path:url(#SVGID_00000075852819912248418830000004251274554332285596_);fill:#F9E628;}
	.st75{clip-path:url(#SVGID_00000075852819912248418830000004251274554332285596_);fill:#F9E528;}
	.st76{clip-path:url(#SVGID_00000075852819912248418830000004251274554332285596_);fill:#F9E428;}
	.st77{clip-path:url(#SVGID_00000075852819912248418830000004251274554332285596_);fill:#F9E328;}
	.st78{clip-path:url(#SVGID_00000075852819912248418830000004251274554332285596_);fill:#F9E32A;}
	.st79{clip-path:url(#SVGID_00000075852819912248418830000004251274554332285596_);fill:#F9E22A;}
	.st80{clip-path:url(#SVGID_00000075852819912248418830000004251274554332285596_);fill:#F9E12A;}
	.st81{clip-path:url(#SVGID_00000075852819912248418830000004251274554332285596_);fill:#F9E02A;}
	.st82{clip-path:url(#SVGID_00000075852819912248418830000004251274554332285596_);fill:#F9DF2C;}
	.st83{clip-path:url(#SVGID_00000075852819912248418830000004251274554332285596_);fill:#F9DE2C;}
	.st84{clip-path:url(#SVGID_00000075852819912248418830000004251274554332285596_);fill:#F9DD2D;}
	.st85{clip-path:url(#SVGID_00000075852819912248418830000004251274554332285596_);fill:#F9DC2D;}
	.st86{clip-path:url(#SVGID_00000075852819912248418830000004251274554332285596_);fill:#F9DC2E;}
	.st87{clip-path:url(#SVGID_00000075852819912248418830000004251274554332285596_);fill:#F9DB2E;}
	.st88{clip-path:url(#SVGID_00000075852819912248418830000004251274554332285596_);fill:#F9DA2E;}
	.st89{clip-path:url(#SVGID_00000075852819912248418830000004251274554332285596_);fill:#F9D92E;}
	.st90{clip-path:url(#SVGID_00000075852819912248418830000004251274554332285596_);fill:#F9D82F;}
	.st91{clip-path:url(#SVGID_00000075852819912248418830000004251274554332285596_);fill:#F9D830;}
	.st92{clip-path:url(#SVGID_00000075852819912248418830000004251274554332285596_);fill:#F8D730;}
	.st93{clip-path:url(#SVGID_00000075852819912248418830000004251274554332285596_);fill:#F9D730;}
	.st94{clip-path:url(#SVGID_00000075852819912248418830000004251274554332285596_);fill:#F9D630;}
	.st95{clip-path:url(#SVGID_00000075852819912248418830000004251274554332285596_);fill:#F9D530;}
	.st96{clip-path:url(#SVGID_00000075852819912248418830000004251274554332285596_);fill:#F9D431;}
	.st97{clip-path:url(#SVGID_00000075852819912248418830000004251274554332285596_);fill:#F9D432;}
	.st98{clip-path:url(#SVGID_00000075852819912248418830000004251274554332285596_);fill:#F9D332;}
	.st99{clip-path:url(#SVGID_00000075852819912248418830000004251274554332285596_);fill:#F9D232;}
	.st100{clip-path:url(#SVGID_00000075852819912248418830000004251274554332285596_);fill:#FAD231;}
	.st101{clip-path:url(#SVGID_00000075852819912248418830000004251274554332285596_);fill:#F9D131;}
	.st102{clip-path:url(#SVGID_00000075852819912248418830000004251274554332285596_);fill:#F9D133;}
	.st103{clip-path:url(#SVGID_00000075852819912248418830000004251274554332285596_);fill:#F9D033;}
	.st104{clip-path:url(#SVGID_00000075852819912248418830000004251274554332285596_);fill:#F9CF33;}
	.st105{clip-path:url(#SVGID_00000075852819912248418830000004251274554332285596_);fill:#F9CE33;}
	.st106{clip-path:url(#SVGID_00000075852819912248418830000004251274554332285596_);fill:#FACD34;}
	.st107{clip-path:url(#SVGID_00000075852819912248418830000004251274554332285596_);fill:#F9CC34;}
	.st108{clip-path:url(#SVGID_00000075852819912248418830000004251274554332285596_);fill:#F9CB34;}
	.st109{clip-path:url(#SVGID_00000075852819912248418830000004251274554332285596_);fill:#F9CA34;}
	.st110{clip-path:url(#SVGID_00000075852819912248418830000004251274554332285596_);fill:#F9C936;}
	.st111{clip-path:url(#SVGID_00000075852819912248418830000004251274554332285596_);fill:#FAC835;}
	.st112{clip-path:url(#SVGID_00000075852819912248418830000004251274554332285596_);fill:#FAC735;}
	.st113{clip-path:url(#SVGID_00000075852819912248418830000004251274554332285596_);fill:#F9C735;}
	.st114{clip-path:url(#SVGID_00000075852819912248418830000004251274554332285596_);fill:#F9C637;}
	.st115{clip-path:url(#SVGID_00000075852819912248418830000004251274554332285596_);fill:#F9C537;}
	.st116{clip-path:url(#SVGID_00000075852819912248418830000004251274554332285596_);fill:#F9C437;}
	.st117{clip-path:url(#SVGID_00000075852819912248418830000004251274554332285596_);fill:#FAC436;}
	.st118{clip-path:url(#SVGID_00000075852819912248418830000004251274554332285596_);fill:#FAC336;}
	.st119{clip-path:url(#SVGID_00000075852819912248418830000004251274554332285596_);fill:#FAC238;}
	.st120{clip-path:url(#SVGID_00000075852819912248418830000004251274554332285596_);fill:#FAC138;}
	.st121{clip-path:url(#SVGID_00000075852819912248418830000004251274554332285596_);fill:#F9C138;}
	.st122{clip-path:url(#SVGID_00000075852819912248418830000004251274554332285596_);fill:#F9C038;}
	.st123{clip-path:url(#SVGID_00000075852819912248418830000004251274554332285596_);fill:#F9BF38;}
	.st124{clip-path:url(#SVGID_00000075852819912248418830000004251274554332285596_);fill:#FABF38;}
	.st125{clip-path:url(#SVGID_00000075852819912248418830000004251274554332285596_);fill:#FABE38;}
	.st126{clip-path:url(#SVGID_00000075852819912248418830000004251274554332285596_);fill:#FABD38;}
	.st127{clip-path:url(#SVGID_00000075852819912248418830000004251274554332285596_);fill:#FABC38;}
	.st128{clip-path:url(#SVGID_00000075852819912248418830000004251274554332285596_);fill:#FABB39;}
	.st129{clip-path:url(#SVGID_00000075852819912248418830000004251274554332285596_);fill:#FABB3A;}
	.st130{clip-path:url(#SVGID_00000075852819912248418830000004251274554332285596_);fill:#FABA3A;}
	.st131{clip-path:url(#SVGID_00000075852819912248418830000004251274554332285596_);fill:#FBBA39;}
	.st132{clip-path:url(#SVGID_00000075852819912248418830000004251274554332285596_);fill:#FBB939;}
	.st133{clip-path:url(#SVGID_00000075852819912248418830000004251274554332285596_);fill:#FBB839;}
	.st134{clip-path:url(#SVGID_00000075852819912248418830000004251274554332285596_);fill:#FAB73A;}
	.st135{clip-path:url(#SVGID_00000075852819912248418830000004251274554332285596_);fill:#FAB53A;}
	.st136{clip-path:url(#SVGID_00000075852819912248418830000004251274554332285596_);fill:#FAB43A;}
	.st137{clip-path:url(#SVGID_00000075852819912248418830000004251274554332285596_);fill:#FBB43A;}
	.st138{clip-path:url(#SVGID_00000075852819912248418830000004251274554332285596_);fill:#FBB33A;}
	.st139{clip-path:url(#SVGID_00000075852819912248418830000004251274554332285596_);fill:#FBB33B;}
	.st140{clip-path:url(#SVGID_00000075852819912248418830000004251274554332285596_);fill:#FBB23B;}
	.st141{clip-path:url(#SVGID_00000075852819912248418830000004251274554332285596_);fill:#FBB13B;}
	.st142{clip-path:url(#SVGID_00000075852819912248418830000004251274554332285596_);fill:#FBB03B;}
	.st143{clip-path:url(#SVGID_00000075852819912248418830000004251274554332285596_);fill:#FAAF3B;}
	.st144{clip-path:url(#SVGID_00000023239588371135902000000007322378636100662444_);fill:#F9EC23;}
	.st145{clip-path:url(#SVGID_00000023239588371135902000000007322378636100662444_);fill:#FAEC24;}
	.st146{clip-path:url(#SVGID_00000023239588371135902000000007322378636100662444_);fill:#FAEB24;}
	.st147{clip-path:url(#SVGID_00000023239588371135902000000007322378636100662444_);fill:#F9EA25;}
	.st148{clip-path:url(#SVGID_00000023239588371135902000000007322378636100662444_);fill:#F9E925;}
	.st149{clip-path:url(#SVGID_00000023239588371135902000000007322378636100662444_);fill:#F9E825;}
	.st150{clip-path:url(#SVGID_00000023239588371135902000000007322378636100662444_);fill:#F9E726;}
	.st151{clip-path:url(#SVGID_00000023239588371135902000000007322378636100662444_);fill:#F9E728;}
	.st152{clip-path:url(#SVGID_00000023239588371135902000000007322378636100662444_);fill:#F9E628;}
	.st153{clip-path:url(#SVGID_00000023239588371135902000000007322378636100662444_);fill:#F9E528;}
	.st154{clip-path:url(#SVGID_00000023239588371135902000000007322378636100662444_);fill:#F9E428;}
	.st155{clip-path:url(#SVGID_00000023239588371135902000000007322378636100662444_);fill:#F9E328;}
	.st156{clip-path:url(#SVGID_00000023239588371135902000000007322378636100662444_);fill:#F9E32A;}
	.st157{clip-path:url(#SVGID_00000023239588371135902000000007322378636100662444_);fill:#F9E22A;}
	.st158{clip-path:url(#SVGID_00000023239588371135902000000007322378636100662444_);fill:#F9E12A;}
	.st159{clip-path:url(#SVGID_00000023239588371135902000000007322378636100662444_);fill:#F9E02A;}
	.st160{clip-path:url(#SVGID_00000023239588371135902000000007322378636100662444_);fill:#F9DF2C;}
	.st161{clip-path:url(#SVGID_00000023239588371135902000000007322378636100662444_);fill:#F9DE2C;}
	.st162{clip-path:url(#SVGID_00000023239588371135902000000007322378636100662444_);fill:#F9DD2D;}
	.st163{clip-path:url(#SVGID_00000023239588371135902000000007322378636100662444_);fill:#F9DC2D;}
	.st164{clip-path:url(#SVGID_00000023239588371135902000000007322378636100662444_);fill:#F9DC2E;}
	.st165{clip-path:url(#SVGID_00000023239588371135902000000007322378636100662444_);fill:#F9DB2E;}
	.st166{clip-path:url(#SVGID_00000023239588371135902000000007322378636100662444_);fill:#F9DA2E;}
	.st167{clip-path:url(#SVGID_00000023239588371135902000000007322378636100662444_);fill:#F9D92E;}
	.st168{clip-path:url(#SVGID_00000023239588371135902000000007322378636100662444_);fill:#F9D82F;}
	.st169{clip-path:url(#SVGID_00000023239588371135902000000007322378636100662444_);fill:#F9D830;}
	.st170{clip-path:url(#SVGID_00000023239588371135902000000007322378636100662444_);fill:#F9D730;}
	.st171{clip-path:url(#SVGID_00000023239588371135902000000007322378636100662444_);fill:#F9D630;}
	.st172{clip-path:url(#SVGID_00000023239588371135902000000007322378636100662444_);fill:#F9D530;}
	.st173{clip-path:url(#SVGID_00000023239588371135902000000007322378636100662444_);fill:#F9D431;}
	.st174{clip-path:url(#SVGID_00000023239588371135902000000007322378636100662444_);fill:#F9D432;}
	.st175{clip-path:url(#SVGID_00000023239588371135902000000007322378636100662444_);fill:#F9D332;}
	.st176{clip-path:url(#SVGID_00000023239588371135902000000007322378636100662444_);fill:#F9D232;}
	.st177{clip-path:url(#SVGID_00000023239588371135902000000007322378636100662444_);fill:#F9D131;}
	.st178{clip-path:url(#SVGID_00000023239588371135902000000007322378636100662444_);fill:#F9D133;}
	.st179{clip-path:url(#SVGID_00000023239588371135902000000007322378636100662444_);fill:#F9D033;}
	.st180{clip-path:url(#SVGID_00000023239588371135902000000007322378636100662444_);fill:#F9CF33;}
	.st181{clip-path:url(#SVGID_00000023239588371135902000000007322378636100662444_);fill:#F9CE33;}
	.st182{clip-path:url(#SVGID_00000023239588371135902000000007322378636100662444_);fill:#FACD34;}
	.st183{clip-path:url(#SVGID_00000023239588371135902000000007322378636100662444_);fill:#F9CB34;}
	.st184{clip-path:url(#SVGID_00000023239588371135902000000007322378636100662444_);fill:#F9CA34;}
	.st185{clip-path:url(#SVGID_00000023239588371135902000000007322378636100662444_);fill:#F9C936;}
	.st186{clip-path:url(#SVGID_00000023239588371135902000000007322378636100662444_);fill:#FAC835;}
	.st187{clip-path:url(#SVGID_00000023239588371135902000000007322378636100662444_);fill:#FAC735;}
	.st188{clip-path:url(#SVGID_00000023239588371135902000000007322378636100662444_);fill:#F9C635;}
	.st189{clip-path:url(#SVGID_00000023239588371135902000000007322378636100662444_);fill:#F9C537;}
	.st190{clip-path:url(#SVGID_00000023239588371135902000000007322378636100662444_);fill:#F9C437;}
	.st191{clip-path:url(#SVGID_00000023239588371135902000000007322378636100662444_);fill:#FAC436;}
	.st192{clip-path:url(#SVGID_00000023239588371135902000000007322378636100662444_);fill:#FAC237;}
	.st193{clip-path:url(#SVGID_00000023239588371135902000000007322378636100662444_);fill:#FAC138;}
	.st194{clip-path:url(#SVGID_00000023239588371135902000000007322378636100662444_);fill:#F9C138;}
	.st195{clip-path:url(#SVGID_00000023239588371135902000000007322378636100662444_);fill:#F9C038;}
	.st196{clip-path:url(#SVGID_00000023239588371135902000000007322378636100662444_);fill:#F9BF38;}
	.st197{clip-path:url(#SVGID_00000041277903125234262670000008552631358023595666_);fill:#F9EC23;}
	.st198{clip-path:url(#SVGID_00000041277903125234262670000008552631358023595666_);fill:#FAEC24;}
	.st199{clip-path:url(#SVGID_00000041277903125234262670000008552631358023595666_);fill:#FAEB24;}
	.st200{clip-path:url(#SVGID_00000041277903125234262670000008552631358023595666_);fill:#F9EA25;}
	.st201{clip-path:url(#SVGID_00000041277903125234262670000008552631358023595666_);fill:#F9E925;}
	.st202{clip-path:url(#SVGID_00000041277903125234262670000008552631358023595666_);fill:#F9E825;}
	.st203{clip-path:url(#SVGID_00000041277903125234262670000008552631358023595666_);fill:#F9E726;}
	.st204{clip-path:url(#SVGID_00000041277903125234262670000008552631358023595666_);fill:#F9E728;}
	.st205{clip-path:url(#SVGID_00000041277903125234262670000008552631358023595666_);fill:#F9E628;}
	.st206{clip-path:url(#SVGID_00000041277903125234262670000008552631358023595666_);fill:#F9E528;}
	.st207{clip-path:url(#SVGID_00000041277903125234262670000008552631358023595666_);fill:#F9E428;}
	.st208{clip-path:url(#SVGID_00000041277903125234262670000008552631358023595666_);fill:#F9E328;}
	.st209{clip-path:url(#SVGID_00000041277903125234262670000008552631358023595666_);fill:#F9E32A;}
	.st210{clip-path:url(#SVGID_00000041277903125234262670000008552631358023595666_);fill:#F9E22A;}
	.st211{clip-path:url(#SVGID_00000041277903125234262670000008552631358023595666_);fill:#F9E12A;}
	.st212{clip-path:url(#SVGID_00000041277903125234262670000008552631358023595666_);fill:#F9E02A;}
	.st213{clip-path:url(#SVGID_00000041277903125234262670000008552631358023595666_);fill:#F9DF2C;}
	.st214{clip-path:url(#SVGID_00000041277903125234262670000008552631358023595666_);fill:#F9DE2C;}
	.st215{clip-path:url(#SVGID_00000041277903125234262670000008552631358023595666_);fill:#F9DD2D;}
	.st216{clip-path:url(#SVGID_00000041277903125234262670000008552631358023595666_);fill:#F9DC2D;}
	.st217{clip-path:url(#SVGID_00000041277903125234262670000008552631358023595666_);fill:#F9DC2E;}
	.st218{clip-path:url(#SVGID_00000041277903125234262670000008552631358023595666_);fill:#F9DB2E;}
	.st219{clip-path:url(#SVGID_00000041277903125234262670000008552631358023595666_);fill:#F9DA2E;}
	.st220{clip-path:url(#SVGID_00000041277903125234262670000008552631358023595666_);fill:#F9D92E;}
	.st221{clip-path:url(#SVGID_00000041277903125234262670000008552631358023595666_);fill:#F9D82F;}
	.st222{clip-path:url(#SVGID_00000041277903125234262670000008552631358023595666_);fill:#F9D830;}
	.st223{clip-path:url(#SVGID_00000041277903125234262670000008552631358023595666_);fill:#F9D730;}
	.st224{clip-path:url(#SVGID_00000041277903125234262670000008552631358023595666_);fill:#F9D630;}
	.st225{clip-path:url(#SVGID_00000041277903125234262670000008552631358023595666_);fill:#F9D530;}
	.st226{clip-path:url(#SVGID_00000041277903125234262670000008552631358023595666_);fill:#F9D431;}
	.st227{clip-path:url(#SVGID_00000041277903125234262670000008552631358023595666_);fill:#F9D432;}
	.st228{clip-path:url(#SVGID_00000041277903125234262670000008552631358023595666_);fill:#F9D332;}
	.st229{clip-path:url(#SVGID_00000041277903125234262670000008552631358023595666_);fill:#F9D232;}
	.st230{clip-path:url(#SVGID_00000041277903125234262670000008552631358023595666_);fill:#F9D131;}
	.st231{clip-path:url(#SVGID_00000041277903125234262670000008552631358023595666_);fill:#F9D133;}
	.st232{clip-path:url(#SVGID_00000041277903125234262670000008552631358023595666_);fill:#F9D033;}
	.st233{clip-path:url(#SVGID_00000041277903125234262670000008552631358023595666_);fill:#F9CF33;}
	.st234{clip-path:url(#SVGID_00000041277903125234262670000008552631358023595666_);fill:#F9CE33;}
	.st235{clip-path:url(#SVGID_00000041277903125234262670000008552631358023595666_);fill:#FACD34;}
	.st236{clip-path:url(#SVGID_00000041277903125234262670000008552631358023595666_);fill:#F9CB34;}
	.st237{clip-path:url(#SVGID_00000041277903125234262670000008552631358023595666_);fill:#F9CA34;}
	.st238{clip-path:url(#SVGID_00000041277903125234262670000008552631358023595666_);fill:#F9C936;}
	.st239{clip-path:url(#SVGID_00000041277903125234262670000008552631358023595666_);fill:#FAC835;}
	.st240{clip-path:url(#SVGID_00000041277903125234262670000008552631358023595666_);fill:#FAC735;}
	.st241{clip-path:url(#SVGID_00000041277903125234262670000008552631358023595666_);fill:#F9C635;}
	.st242{clip-path:url(#SVGID_00000041277903125234262670000008552631358023595666_);fill:#F9C537;}
	.st243{clip-path:url(#SVGID_00000041277903125234262670000008552631358023595666_);fill:#F9C437;}
	.st244{clip-path:url(#SVGID_00000041277903125234262670000008552631358023595666_);fill:#FAC436;}
	.st245{clip-path:url(#SVGID_00000041277903125234262670000008552631358023595666_);fill:#FAC237;}
	.st246{clip-path:url(#SVGID_00000041277903125234262670000008552631358023595666_);fill:#FAC138;}
	.st247{clip-path:url(#SVGID_00000041277903125234262670000008552631358023595666_);fill:#F9C138;}
	.st248{clip-path:url(#SVGID_00000041277903125234262670000008552631358023595666_);fill:#F9C038;}
	.st249{clip-path:url(#SVGID_00000041277903125234262670000008552631358023595666_);fill:#F9BF38;}
	.st250{clip-path:url(#SVGID_00000041277903125234262670000008552631358023595666_);fill:#FABE38;}
	.st251{clip-path:url(#SVGID_00000041277903125234262670000008552631358023595666_);fill:#FABD38;}
	.st252{clip-path:url(#SVGID_00000041277903125234262670000008552631358023595666_);fill:#FABC38;}
	.st253{clip-path:url(#SVGID_00000041277903125234262670000008552631358023595666_);fill:#FABB39;}
	.st254{clip-path:url(#SVGID_00000041277903125234262670000008552631358023595666_);fill:#FABA3A;}
	.st255{clip-path:url(#SVGID_00000041277903125234262670000008552631358023595666_);fill:#FBBA39;}
	.st256{clip-path:url(#SVGID_00000041277903125234262670000008552631358023595666_);fill:#FBB839;}
	.st257{clip-path:url(#SVGID_00000041277903125234262670000008552631358023595666_);fill:#FAB739;}
	.st258{clip-path:url(#SVGID_00000041277903125234262670000008552631358023595666_);fill:#FAB73A;}
	.st259{clip-path:url(#SVGID_00000041277903125234262670000008552631358023595666_);fill:#FAB63A;}
	.st260{clip-path:url(#SVGID_00000041277903125234262670000008552631358023595666_);fill:#FAB43A;}
	.st261{clip-path:url(#SVGID_00000041277903125234262670000008552631358023595666_);fill:#FBB43A;}
	.st262{clip-path:url(#SVGID_00000041277903125234262670000008552631358023595666_);fill:#FBB33B;}
	.st263{clip-path:url(#SVGID_00000041277903125234262670000008552631358023595666_);fill:#FBB23B;}
	.st264{clip-path:url(#SVGID_00000041277903125234262670000008552631358023595666_);fill:#FBB13B;}
	.st265{clip-path:url(#SVGID_00000041277903125234262670000008552631358023595666_);fill:#FBB03B;}
	.st266{clip-path:url(#SVGID_00000041277903125234262670000008552631358023595666_);fill:#FAAF3B;}
	.st267{clip-path:url(#SVGID_00000002347371400631982660000017280555930423776427_);fill:#F9EC23;}
	.st268{clip-path:url(#SVGID_00000002347371400631982660000017280555930423776427_);fill:#FAEC24;}
	.st269{clip-path:url(#SVGID_00000002347371400631982660000017280555930423776427_);fill:#FAEB24;}
	.st270{clip-path:url(#SVGID_00000002347371400631982660000017280555930423776427_);fill:#F9EA25;}
	.st271{clip-path:url(#SVGID_00000002347371400631982660000017280555930423776427_);fill:#F9E925;}
	.st272{clip-path:url(#SVGID_00000002347371400631982660000017280555930423776427_);fill:#F9E825;}
	.st273{clip-path:url(#SVGID_00000002347371400631982660000017280555930423776427_);fill:#F9E726;}
	.st274{clip-path:url(#SVGID_00000002347371400631982660000017280555930423776427_);fill:#F9E728;}
	.st275{clip-path:url(#SVGID_00000002347371400631982660000017280555930423776427_);fill:#F9E628;}
	.st276{clip-path:url(#SVGID_00000002347371400631982660000017280555930423776427_);fill:#F9E528;}
	.st277{clip-path:url(#SVGID_00000002347371400631982660000017280555930423776427_);fill:#F9E428;}
	.st278{clip-path:url(#SVGID_00000002347371400631982660000017280555930423776427_);fill:#F9E328;}
	.st279{clip-path:url(#SVGID_00000002347371400631982660000017280555930423776427_);fill:#F9E32A;}
	.st280{clip-path:url(#SVGID_00000002347371400631982660000017280555930423776427_);fill:#F9E22A;}
	.st281{clip-path:url(#SVGID_00000002347371400631982660000017280555930423776427_);fill:#F9E12A;}
	.st282{clip-path:url(#SVGID_00000002347371400631982660000017280555930423776427_);fill:#F9E02A;}
	.st283{clip-path:url(#SVGID_00000002347371400631982660000017280555930423776427_);fill:#F9DF2C;}
	.st284{clip-path:url(#SVGID_00000002347371400631982660000017280555930423776427_);fill:#F9DE2C;}
	.st285{clip-path:url(#SVGID_00000002347371400631982660000017280555930423776427_);fill:#F9DD2D;}
	.st286{clip-path:url(#SVGID_00000002347371400631982660000017280555930423776427_);fill:#F9DC2D;}
	.st287{clip-path:url(#SVGID_00000002347371400631982660000017280555930423776427_);fill:#F9DC2E;}
	.st288{clip-path:url(#SVGID_00000002347371400631982660000017280555930423776427_);fill:#F9DB2E;}
	.st289{clip-path:url(#SVGID_00000002347371400631982660000017280555930423776427_);fill:#F9DA2E;}
	.st290{clip-path:url(#SVGID_00000002347371400631982660000017280555930423776427_);fill:#F9D92E;}
	.st291{clip-path:url(#SVGID_00000002347371400631982660000017280555930423776427_);fill:#F9D82F;}
	.st292{clip-path:url(#SVGID_00000002347371400631982660000017280555930423776427_);fill:#F9D830;}
	.st293{clip-path:url(#SVGID_00000002347371400631982660000017280555930423776427_);fill:#F9D730;}
	.st294{clip-path:url(#SVGID_00000002347371400631982660000017280555930423776427_);fill:#F9D630;}
	.st295{clip-path:url(#SVGID_00000002347371400631982660000017280555930423776427_);fill:#F9D530;}
	.st296{clip-path:url(#SVGID_00000002347371400631982660000017280555930423776427_);fill:#F9D431;}
	.st297{clip-path:url(#SVGID_00000002347371400631982660000017280555930423776427_);fill:#F9D432;}
	.st298{clip-path:url(#SVGID_00000002347371400631982660000017280555930423776427_);fill:#F9D332;}
	.st299{clip-path:url(#SVGID_00000002347371400631982660000017280555930423776427_);fill:#F9D232;}
	.st300{clip-path:url(#SVGID_00000002347371400631982660000017280555930423776427_);fill:#F9D131;}
	.st301{clip-path:url(#SVGID_00000002347371400631982660000017280555930423776427_);fill:#F9D133;}
	.st302{clip-path:url(#SVGID_00000002347371400631982660000017280555930423776427_);fill:#F9D033;}
	.st303{clip-path:url(#SVGID_00000002347371400631982660000017280555930423776427_);fill:#F9CF33;}
	.st304{clip-path:url(#SVGID_00000002347371400631982660000017280555930423776427_);fill:#F9CE33;}
	.st305{clip-path:url(#SVGID_00000002347371400631982660000017280555930423776427_);fill:#FACD34;}
	.st306{clip-path:url(#SVGID_00000002347371400631982660000017280555930423776427_);fill:#F9CB34;}
	.st307{clip-path:url(#SVGID_00000002347371400631982660000017280555930423776427_);fill:#F9CA34;}
	.st308{clip-path:url(#SVGID_00000002347371400631982660000017280555930423776427_);fill:#F9C936;}
	.st309{clip-path:url(#SVGID_00000002347371400631982660000017280555930423776427_);fill:#FAC835;}
	.st310{clip-path:url(#SVGID_00000002347371400631982660000017280555930423776427_);fill:#FAC735;}
	.st311{clip-path:url(#SVGID_00000002347371400631982660000017280555930423776427_);fill:#F9C635;}
	.st312{clip-path:url(#SVGID_00000002347371400631982660000017280555930423776427_);fill:#F9C537;}
	.st313{clip-path:url(#SVGID_00000002347371400631982660000017280555930423776427_);fill:#F9C437;}
	.st314{clip-path:url(#SVGID_00000002347371400631982660000017280555930423776427_);fill:#FAC436;}
	.st315{clip-path:url(#SVGID_00000002347371400631982660000017280555930423776427_);fill:#FAC237;}
	.st316{clip-path:url(#SVGID_00000002347371400631982660000017280555930423776427_);fill:#FAC138;}
	.st317{clip-path:url(#SVGID_00000002347371400631982660000017280555930423776427_);fill:#F9C138;}
	.st318{clip-path:url(#SVGID_00000002347371400631982660000017280555930423776427_);fill:#F9C038;}
	.st319{clip-path:url(#SVGID_00000002347371400631982660000017280555930423776427_);fill:#F9BF38;}
	.st320{clip-path:url(#SVGID_00000002347371400631982660000017280555930423776427_);fill:#FABE38;}
	.st321{clip-path:url(#SVGID_00000002347371400631982660000017280555930423776427_);fill:#FABD38;}
	.st322{clip-path:url(#SVGID_00000002347371400631982660000017280555930423776427_);fill:#FABC38;}
	.st323{clip-path:url(#SVGID_00000002347371400631982660000017280555930423776427_);fill:#FABB39;}
	.st324{clip-path:url(#SVGID_00000002347371400631982660000017280555930423776427_);fill:#FABA3A;}
	.st325{clip-path:url(#SVGID_00000002347371400631982660000017280555930423776427_);fill:#FBBA39;}
	.st326{clip-path:url(#SVGID_00000002347371400631982660000017280555930423776427_);fill:#FBB839;}
	.st327{clip-path:url(#SVGID_00000002347371400631982660000017280555930423776427_);fill:#FAB739;}
	.st328{clip-path:url(#SVGID_00000002347371400631982660000017280555930423776427_);fill:#FAB73A;}
	.st329{clip-path:url(#SVGID_00000002347371400631982660000017280555930423776427_);fill:#FAB63A;}
	.st330{clip-path:url(#SVGID_00000002347371400631982660000017280555930423776427_);fill:#FAB43A;}
	.st331{clip-path:url(#SVGID_00000002347371400631982660000017280555930423776427_);fill:#FBB43A;}
	.st332{clip-path:url(#SVGID_00000002347371400631982660000017280555930423776427_);fill:#FBB33B;}
	.st333{clip-path:url(#SVGID_00000002347371400631982660000017280555930423776427_);fill:#FBB23B;}
	.st334{clip-path:url(#SVGID_00000002347371400631982660000017280555930423776427_);fill:#FBB13B;}
	.st335{clip-path:url(#SVGID_00000002347371400631982660000017280555930423776427_);fill:#FBB03B;}
	.st336{clip-path:url(#SVGID_00000002347371400631982660000017280555930423776427_);fill:#FAAF3B;}
	.st337{clip-path:url(#SVGID_00000176724969130043672740000009190202918491156909_);fill:#F9EC23;}
	.st338{clip-path:url(#SVGID_00000176724969130043672740000009190202918491156909_);fill:#FAEC24;}
	.st339{clip-path:url(#SVGID_00000176724969130043672740000009190202918491156909_);fill:#FAEB24;}
	.st340{clip-path:url(#SVGID_00000176724969130043672740000009190202918491156909_);fill:#F9EA25;}
	.st341{clip-path:url(#SVGID_00000176724969130043672740000009190202918491156909_);fill:#F9E925;}
	.st342{clip-path:url(#SVGID_00000176724969130043672740000009190202918491156909_);fill:#F9E825;}
	.st343{clip-path:url(#SVGID_00000176724969130043672740000009190202918491156909_);fill:#F9E726;}
	.st344{clip-path:url(#SVGID_00000176724969130043672740000009190202918491156909_);fill:#F9E728;}
	.st345{clip-path:url(#SVGID_00000176724969130043672740000009190202918491156909_);fill:#F9E628;}
	.st346{clip-path:url(#SVGID_00000176724969130043672740000009190202918491156909_);fill:#F9E528;}
	.st347{clip-path:url(#SVGID_00000176724969130043672740000009190202918491156909_);fill:#F9E428;}
	.st348{clip-path:url(#SVGID_00000176724969130043672740000009190202918491156909_);fill:#F9E328;}
	.st349{clip-path:url(#SVGID_00000176724969130043672740000009190202918491156909_);fill:#F9E32A;}
	.st350{clip-path:url(#SVGID_00000176724969130043672740000009190202918491156909_);fill:#F9E22A;}
	.st351{clip-path:url(#SVGID_00000176724969130043672740000009190202918491156909_);fill:#F9E12A;}
	.st352{clip-path:url(#SVGID_00000176724969130043672740000009190202918491156909_);fill:#F9E02A;}
	.st353{clip-path:url(#SVGID_00000176724969130043672740000009190202918491156909_);fill:#F9DF2C;}
	.st354{clip-path:url(#SVGID_00000176724969130043672740000009190202918491156909_);fill:#F9DE2C;}
	.st355{clip-path:url(#SVGID_00000176724969130043672740000009190202918491156909_);fill:#F9DD2D;}
	.st356{clip-path:url(#SVGID_00000176724969130043672740000009190202918491156909_);fill:#F9DC2D;}
	.st357{clip-path:url(#SVGID_00000176724969130043672740000009190202918491156909_);fill:#F9DC2E;}
	.st358{clip-path:url(#SVGID_00000176724969130043672740000009190202918491156909_);fill:#F9DB2E;}
	.st359{clip-path:url(#SVGID_00000176724969130043672740000009190202918491156909_);fill:#F9DA2E;}
	.st360{clip-path:url(#SVGID_00000176724969130043672740000009190202918491156909_);fill:#F9D92E;}
	.st361{clip-path:url(#SVGID_00000176724969130043672740000009190202918491156909_);fill:#F9D82F;}
	.st362{clip-path:url(#SVGID_00000176724969130043672740000009190202918491156909_);fill:#F9D830;}
	.st363{clip-path:url(#SVGID_00000176724969130043672740000009190202918491156909_);fill:#F9D730;}
	.st364{clip-path:url(#SVGID_00000176724969130043672740000009190202918491156909_);fill:#F9D630;}
	.st365{clip-path:url(#SVGID_00000176724969130043672740000009190202918491156909_);fill:#F9D530;}
	.st366{clip-path:url(#SVGID_00000176724969130043672740000009190202918491156909_);fill:#F9D431;}
	.st367{clip-path:url(#SVGID_00000176724969130043672740000009190202918491156909_);fill:#F9D432;}
	.st368{clip-path:url(#SVGID_00000176724969130043672740000009190202918491156909_);fill:#F9D332;}
	.st369{clip-path:url(#SVGID_00000176724969130043672740000009190202918491156909_);fill:#F9D232;}
	.st370{clip-path:url(#SVGID_00000176724969130043672740000009190202918491156909_);fill:#F9D131;}
	.st371{clip-path:url(#SVGID_00000176724969130043672740000009190202918491156909_);fill:#F9D133;}
	.st372{clip-path:url(#SVGID_00000176724969130043672740000009190202918491156909_);fill:#F9D033;}
	.st373{clip-path:url(#SVGID_00000176724969130043672740000009190202918491156909_);fill:#F9CF33;}
	.st374{clip-path:url(#SVGID_00000176724969130043672740000009190202918491156909_);fill:#F9CE33;}
	.st375{clip-path:url(#SVGID_00000176724969130043672740000009190202918491156909_);fill:#FACD34;}
	.st376{clip-path:url(#SVGID_00000176724969130043672740000009190202918491156909_);fill:#F9CB34;}
	.st377{clip-path:url(#SVGID_00000176724969130043672740000009190202918491156909_);fill:#F9CA34;}
	.st378{clip-path:url(#SVGID_00000176724969130043672740000009190202918491156909_);fill:#F9C936;}
	.st379{clip-path:url(#SVGID_00000176724969130043672740000009190202918491156909_);fill:#FAC835;}
	.st380{clip-path:url(#SVGID_00000176724969130043672740000009190202918491156909_);fill:#FAC735;}
	.st381{clip-path:url(#SVGID_00000176724969130043672740000009190202918491156909_);fill:#F9C635;}
	.st382{clip-path:url(#SVGID_00000176724969130043672740000009190202918491156909_);fill:#F9C537;}
	.st383{clip-path:url(#SVGID_00000176724969130043672740000009190202918491156909_);fill:#F9C437;}
	.st384{clip-path:url(#SVGID_00000176724969130043672740000009190202918491156909_);fill:#FAC436;}
	.st385{clip-path:url(#SVGID_00000176724969130043672740000009190202918491156909_);fill:#FAC237;}
	.st386{clip-path:url(#SVGID_00000176724969130043672740000009190202918491156909_);fill:#FAC138;}
	.st387{clip-path:url(#SVGID_00000176724969130043672740000009190202918491156909_);fill:#F9C138;}
	.st388{clip-path:url(#SVGID_00000176724969130043672740000009190202918491156909_);fill:#F9C038;}
	.st389{clip-path:url(#SVGID_00000176724969130043672740000009190202918491156909_);fill:#F9BF38;}
	.st390{clip-path:url(#SVGID_00000176724969130043672740000009190202918491156909_);fill:#FABE38;}
	.st391{clip-path:url(#SVGID_00000176724969130043672740000009190202918491156909_);fill:#FABD38;}
	.st392{clip-path:url(#SVGID_00000176724969130043672740000009190202918491156909_);fill:#FABC38;}
	.st393{clip-path:url(#SVGID_00000176724969130043672740000009190202918491156909_);fill:#FABB39;}
	.st394{clip-path:url(#SVGID_00000176724969130043672740000009190202918491156909_);fill:#FABA3A;}
	.st395{clip-path:url(#SVGID_00000176724969130043672740000009190202918491156909_);fill:#FBBA39;}
	.st396{clip-path:url(#SVGID_00000176724969130043672740000009190202918491156909_);fill:#FBB839;}
	.st397{clip-path:url(#SVGID_00000176724969130043672740000009190202918491156909_);fill:#FAB739;}
	.st398{clip-path:url(#SVGID_00000176724969130043672740000009190202918491156909_);fill:#FAB73A;}
	.st399{clip-path:url(#SVGID_00000176724969130043672740000009190202918491156909_);fill:#FAB63A;}
	.st400{clip-path:url(#SVGID_00000176724969130043672740000009190202918491156909_);fill:#FAB43A;}
	.st401{clip-path:url(#SVGID_00000176724969130043672740000009190202918491156909_);fill:#FBB43A;}
	.st402{clip-path:url(#SVGID_00000176724969130043672740000009190202918491156909_);fill:#FBB33B;}
	.st403{clip-path:url(#SVGID_00000176724969130043672740000009190202918491156909_);fill:#FBB23B;}
	.st404{clip-path:url(#SVGID_00000176724969130043672740000009190202918491156909_);fill:#FBB13B;}
	.st405{clip-path:url(#SVGID_00000176724969130043672740000009190202918491156909_);fill:#FBB03B;}
	.st406{clip-path:url(#SVGID_00000176724969130043672740000009190202918491156909_);fill:#FAAF3B;}
	.st407{fill:#231F21;}
	.st408{fill:#55BBC8;}
	.st409{fill:#50BAC8;}
	.st410{fill:#CAC5C5;}
	.st411{fill:#264E9A;}
	.st412{fill:#FFFFFF;}
	.st413{fill:#258E9C;}
	.st414{fill:#314B7B;}
	.st415{fill:#4A2984;}
	.st416{fill:#5082C2;}
	.st417{fill:#212E48;}
	.st418{fill:#4CBFEE;}
	.st419{fill:#F2B51B;}
	.st420{fill:#3B62AB;}
	.st421{fill:#1A1A3A;}
	.st422{fill:#E30427;}
	.st423{fill:#00B189;}
	.st424{fill:#ED1B35;}
	.st425{fill:#51BBBC;}
	.st426{fill:#F6B500;}
	.st427{fill:#28357F;}

		.st428{clip-path:url(#SVGID_00000088818445947826882930000011509190692938784179_);fill:url(#SVGID_00000176013650843648757440000017101684473941748894_);}

		.st429{clip-path:url(#SVGID_00000085251395797929050660000000925505371648744613_);fill:url(#SVGID_00000132060195407572555550000008681809163832811708_);}
	.st430{fill:#00A5B5;}
	.st431{fill:#6D6E70;}
	.st432{fill:#2698D4;}
	.st433{fill:#A1007D;}
	.st434{fill:#003764;}
	.st435{fill:#12284C;}
	.st436{fill:#F7BE00;}
</style>
    <g>
	<path class="st413" d="M198.84,34.82c-1.19-0.16-2.4-0.05-3.59-0.05c-0.55,0-0.71-0.17-0.7-0.72c0.03-1.74-0.01-3.49,0.03-5.23
		c0.01-0.56-0.15-0.72-0.69-0.71c-1.67,0.03-3.33,0.03-5.01,0c-0.56-0.01-0.74,0.13-0.72,0.75c0.03,1.74-0.01,3.49,0.01,5.23
		c0.01,0.54-0.1,0.76-0.67,0.74c-0.99-0.05-1.98-0.03-2.96-0.01c-0.42,0.01-0.63-0.06-0.63-0.6c0.01-5.54,0.01-11.09,0-16.63
		c0-0.44,0.11-0.6,0.54-0.6c1.04,0.03,2.09,0.04,3.12,0c0.47-0.01,0.59,0.15,0.59,0.63c-0.02,1.74,0.01,3.49-0.01,5.23
		c-0.01,0.61,0.09,0.85,0.74,0.84c1.64-0.06,3.28-0.05,4.93,0c0.65,0.01,0.76-0.21,0.75-0.83c-0.04-1.71,0-3.42-0.03-5.14
		c-0.01-0.54,0.11-0.74,0.67-0.72c1.2,0.05,2.41,0.02,3.61,0.02V34.82z"/>
        <path class="st414" d="M51.76,34.74c-2.06,0-4.11-0.02-6.16,0.01c-0.52,0.01-0.72-0.12-0.69-0.71c0.05-0.94,0.05-1.89,0-2.83
		c-0.04-0.7,0.12-0.91,0.83-0.9c3.4,0.04,6.79,0.02,10.19,0.02l0.65-0.02c0.64-0.08,1.1-0.41,1.07-1.15
		c-0.05-0.72-0.46-1.06-1.15-1.06h-3.53c-1.4,0-2.79,0.01-4.19,0c-2.18-0.03-3.82-1.74-3.85-4.03c-0.01-0.97-0.01-1.94,0-2.91
		c0.05-2.22,1.62-4.08,3.74-4.13c4.26-0.09,8.54-0.04,12.8-0.05c0.45,0,0.48,0.21,0.47,0.57c-0.01,1.09-0.02,2.18,0.01,3.25
		c0.01,0.57-0.2,0.65-0.67,0.65c-3.61-0.02-7.23,0-10.84-0.02c-0.69,0-1.19,0.2-1.24,1.02c-0.05,0.78,0.37,1.18,1.26,1.18
		c2.38,0.01,4.76-0.02,7.13,0.01c2.08,0.02,3.7,1.18,4.15,3.09c0.37,1.61,0.37,3.3,0,4.93c-0.43,1.83-2.07,3.05-3.9,3.07
		C55.81,34.76,53.78,34.74,51.76,34.74"/>
        <path class="st414" d="M108.75,28.16c0,1.94,0.01,3.66,0,5.39c-0.01,1.35,0.17,1.18-1.12,1.2c-0.82,0-1.64-0.03-2.46,0.01
		c-0.52,0.02-0.72-0.12-0.72-0.71c0.03-3.23,0.03-6.45,0-9.68c0-0.65,0.23-0.73,0.76-0.73c3.62,0.03,7.23,0.02,10.84,0.01
		c0.9,0,1.34-0.55,1.14-1.41c-0.14-0.66-0.59-0.79-1.17-0.79c-3.58,0.01-7.17-0.01-10.75,0.02c-0.63,0-0.86-0.15-0.82-0.84
		c0.05-1,0.03-2,0-3c-0.01-0.46,0.09-0.65,0.58-0.65c4.05,0.02,8.1-0.02,12.15,0.03c2.47,0.03,4.28,2.07,4.29,4.66
		c0,0.6,0,1.2,0,1.8c-0.01,2.59-1.91,4.6-4.42,4.63c-0.57,0.02-1.14,0-1.77,0c2.06,2.16,4.09,4.27,6.11,6.38l-0.15,0.27
		c-1.64,0-3.25-0.06-4.88,0.02c-0.94,0.05-1.58-0.27-2.21-0.97c-1.53-1.68-3.13-3.28-4.69-4.92L108.75,28.16z"/>
        <path class="st414" d="M77.31,23.87c-1.34,1.76-2.69,3.51-4.08,5.33c-1.36-1.77-2.68-3.5-4.04-5.25l-0.17,0.9
		c-0.01,3.03-0.02,6.05,0,9.08c0,0.62-0.14,0.87-0.78,0.83c-0.95-0.05-1.91-0.04-2.86,0c-0.47,0.01-0.67-0.11-0.67-0.67
		c0.02-5.48,0.02-10.96,0-16.44c0-0.54,0.13-0.69,0.65-0.67c1.17,0.05,2.47-0.3,3.49,0.12c1.03,0.42,1.53,1.79,2.28,2.71
		c0.57,0.69,1.12,1.41,1.64,2.14c0.32,0.45,0.52,0.6,0.91,0.04c1.09-1.5,2.25-2.94,3.36-4.44c0.32-0.43,0.65-0.6,1.16-0.57
		c0.95,0.05,1.91,0.05,2.86,0c0.57-0.04,0.67,0.19,0.67,0.72c-0.01,5.46-0.01,10.91,0,16.37c0,0.6-0.2,0.71-0.71,0.69
		c-0.92-0.04-1.86-0.05-2.78,0c-0.61,0.03-0.79-0.15-0.79-0.8c0.05-3.14,0.02-6.28,0.02-9.43v-0.58L77.31,23.87z"/>
        <path class="st414" d="M31.32,35.13c-0.08,2.83-1.34,4.95-3.67,6.35c-6.31,3.82-12.63,7.6-18.94,11.42
		c-0.53,0.32-0.68,0.12-0.87-0.32c-1.42-3.25-0.3-7.34,2.66-9.16c6.43-3.95,12.9-7.8,19.34-11.71c0.45-0.27,0.62-0.23,0.83,0.26
		C31.11,32.98,31.36,34.02,31.32,35.13"/>
        <path class="st414" d="M24.09,17.84c-0.08,2.87-1.38,4.99-3.73,6.41C14.09,28.04,7.81,31.8,1.55,35.6
		c-0.54,0.32-0.73,0.2-0.96-0.32c-1.38-3.13-0.28-7.29,2.58-9.05c6.48-3.98,13.01-7.87,19.5-11.81c0.43-0.26,0.59-0.16,0.78,0.28
		C23.88,15.69,24.13,16.73,24.09,17.84"/>
        <path class="st413" d="M37.87,20.31c-0.07,2.6-1.07,4.76-3.23,6.08c-6.48,3.98-12.99,7.87-19.48,11.81
		c-0.53,0.32-0.6-0.03-0.75-0.35c-1.52-3.25-0.35-7.4,2.71-9.26c5.6-3.43,11.25-6.8,16.89-10.19c0.8-0.48,1.63-0.93,2.4-1.46
		c0.47-0.32,0.62-0.17,0.82,0.3C37.64,18.22,37.88,19.24,37.87,20.31"/>
        <path class="st413" d="M30.32,3.55c-0.09,2.6-1.1,4.74-3.26,6.07c-6.46,3.96-12.95,7.84-19.42,11.78C7.08,21.73,7,21.37,6.83,21.01
		c-1.5-3.27-0.25-7.38,2.88-9.28c5.95-3.62,11.92-7.2,17.88-10.81c0.38-0.23,0.79-0.42,1.13-0.69c0.58-0.45,0.84-0.17,1.04,0.4
		C30.13,1.57,30.35,2.53,30.32,3.55"/>
        <path class="st413" d="M152.68,34.75c-2.6,0-5.2-0.01-7.8,0.02c-0.58,0.01-0.73-0.19-0.72-0.78c0.02-3.2,0.02-6.4,0-9.6
		c-0.01-0.62,0.2-0.75,0.75-0.75c5.2,0.02,10.4,0.02,15.61,0c0.61,0,0.73,0.22,0.7,0.79c-0.04,0.91-0.05,1.83,0,2.74
		c0.06,0.73-0.13,0.97-0.89,0.96c-3.67-0.04-7.34,0.01-11-0.04c-0.83-0.01-0.95,0.33-0.89,1.04c0.05,0.61-0.22,1.27,0.87,1.24
		c3.69-0.08,7.39-0.01,11.08-0.05c0.62,0,0.89,0.14,0.83,0.85c-0.06,0.93-0.04,1.88,0,2.82c0.03,0.6-0.15,0.79-0.73,0.78
		C157.88,34.74,155.28,34.75,152.68,34.75"/>
        <path class="st414" d="M93.1,23.7c-1.21,3.19-2.38,6.23-3.53,9.27c-0.67,1.77-0.67,1.8-2.51,1.76c-0.78-0.01-1.56,0.16-2.33-0.1
		c0.25-0.74,0.49-1.5,0.75-2.25c1.75-4.91,3.52-9.81,5.26-14.72c0.18-0.49,0.38-0.72,0.92-0.69c0.99,0.05,1.98,0.04,2.95,0
		c0.45-0.02,0.67,0.1,0.84,0.57c1.96,5.53,3.94,11.05,5.92,16.56c0.22,0.58,0.06,0.67-0.46,0.65c-0.97-0.03-1.96-0.04-2.94,0.01
		c-0.52,0.02-0.7-0.21-0.87-0.66c-1.24-3.25-2.49-6.5-3.74-9.75L93.1,23.7z"/>
        <path class="st413" d="M174.24,34.75c-1.96,0-3.94,0.01-5.91,0c-2.52-0.01-4.16-1.74-4.16-4.34c0-2.03,0.02-4.06-0.01-6.08
		c-0.01-0.51,0.09-0.72,0.62-0.69c1.01,0.05,2.02,0.04,3.03,0.01c0.47-0.02,0.62,0.15,0.6,0.63c-0.03,1.11-0.02,2.23,0,3.34
		c0.01,1.79,0.84,2.68,2.58,2.72c1.69,0.04,3.38,0.01,5.08,0.01c1.49,0,2.96,0.03,4.44-0.02c0.57-0.01,0.7,0.2,0.68,0.74
		c-0.03,0.97-0.05,1.94,0,2.92c0.04,0.68-0.22,0.8-0.81,0.79C178.35,34.73,176.29,34.75,174.24,34.75"/>
        <path class="st413" d="M137.9,17.02c0.96-0.01,1.91,0,2.88-0.05c0.42-0.01,0.57,0.13,0.55,0.6c-0.02,1.05-0.03,2.11,0,3.16
		c0.03,0.55-0.11,0.74-0.67,0.72c-1.67-0.03-3.34,0.02-5.01-0.02c-0.58-0.02-0.73,0.15-0.72,0.75c0.03,3.92-0.01,7.82,0.03,11.73
		c0,0.72-0.17,0.94-0.86,0.89c-0.87-0.07-1.76-0.06-2.62,0c-0.64,0.05-0.83-0.16-0.82-0.84c0.03-4.16,0-8.34,0-12.51
		c1.32-0.78,2.66-1.56,3.97-2.37C135.72,18.4,136.88,17.83,137.9,17.02"/>
        <path class="st413" d="M152.68,16.98c2.6,0,5.19,0.02,7.79-0.01c0.55-0.01,0.78,0.11,0.75,0.74c-0.05,1.03-0.03,2.06-0.01,3.08
		c0.01,0.45-0.06,0.66-0.57,0.66c-5.31-0.02-10.6-0.02-15.91,0c-0.5,0-0.59-0.2-0.57-0.65c0.03-1.05,0.04-2.11,0-3.16
		c-0.02-0.56,0.17-0.67,0.65-0.66C147.43,17,150.06,16.98,152.68,16.98"/>
        <path class="st413" d="M172.6,21.44c-2.57,0-5.14-0.02-7.72,0.02c-0.7,0.01-0.76-0.27-0.68-0.85c0.31-2.03,1.98-3.61,3.99-3.62
		c4.14-0.03,8.27,0,12.4-0.02c0.46,0,0.62,0.14,0.61,0.62c-0.03,1.03-0.03,2.06,0,3.09c0.02,0.59-0.14,0.78-0.72,0.77
		C177.86,21.42,175.23,21.44,172.6,21.44"/>
        <path class="st414" d="M137.9,17.02c-1.02,0.82-2.17,1.38-3.27,2.07c-1.31,0.82-2.65,1.59-3.97,2.37c-1.91,0-3.82-0.03-5.74,0
		c-0.55,0.01-0.68-0.17-0.67-0.72c0.04-1.05,0.04-2.1,0-3.16c-0.01-0.42,0.07-0.6,0.54-0.6C129.15,17.01,133.53,17.01,137.9,17.02"
        />
</g>
</svg>
