<?xml version="1.0" encoding="UTF-8" standalone="no"?>
<svg xmlns="http://www.w3.org/2000/svg" version="1.1" viewBox="0.00 0.00 1773.00 1773.00">
  <g stroke-width="2.00" fill="none" stroke-linecap="butt">
    <path stroke="#ffc700" vector-effect="non-scaling-stroke" d="   M 1090.15 360.74   Q 1090.19 361.21 1089.52 361.23   Q 1085.89 361.34 1082.25 361.34   Q 833.26 361.44 584.27 361.44   Q 583.72 361.44 583.85 360.75"></path>
    <path stroke="#948140" vector-effect="non-scaling-stroke" d="   M 1171.76 360.81   L 1183.46 361.16"></path>
    <path stroke="#ffc700" vector-effect="non-scaling-stroke" d="   M 1191.94 361.65   Q 1194.81 362.90 1197.53 362.12"></path>
    <path stroke="#ffc700" vector-effect="non-scaling-stroke" d="   M 1203.52 362.49   Q 1204.95 363.44 1206.80 363.01"></path>
    <path stroke="#ffc700" vector-effect="non-scaling-stroke" d="   M 1210.68 363.29   Q 1210.63 364.24 1212.47 363.71"></path>
    <path stroke="#948140" vector-effect="non-scaling-stroke" d="   M 1215.45 364.10   Q 1215.89 364.96 1217.21 364.51"></path>
    <path stroke="#948140" vector-effect="non-scaling-stroke" d="   M 1219.18 365.05   Q 1220.55 365.88 1222.02 365.77"></path>
    <path stroke="#948140" vector-effect="non-scaling-stroke" d="   M 1222.45 365.85   Q 1223.52 366.71 1225.03 366.55"></path>
    <path stroke="#ffc700" vector-effect="non-scaling-stroke" d="   M 1225.03 366.55   Q 1227.64 367.94 1230.53 368.17"></path>
    <path stroke="#948140" vector-effect="non-scaling-stroke" d="   M 1235.97 370.04   Q 1235.96 370.17 1235.96 370.29"></path>
    <path stroke="#ffc700" vector-effect="non-scaling-stroke" d="   M 1235.96 370.29   Q 1236.55 370.62 1237.21 370.46"></path>
    <path stroke="#948140" vector-effect="non-scaling-stroke" d="   M 1237.48 370.61   Q 1237.81 370.78 1238.22 370.71"></path>
    <path stroke="#ffc700" vector-effect="non-scaling-stroke" d="   M 1239.65 371.55   Q 1241.22 373.08 1243.30 373.02"></path>
    <path stroke="#948140" vector-effect="non-scaling-stroke" d="   M 1245.94 374.16   Q 1246.01 374.33 1246.14 374.52   Q 1246.26 374.70 1246.46 374.81   Q 1249.98 376.62 1253.52 378.37   Q 1253.97 378.60 1254.45 378.49"></path>
    <path stroke="#ffc700" vector-effect="non-scaling-stroke" d="   M 1256.59 379.62   Q 1258.04 381.61 1260.53 382.02"></path>
    <path stroke="#948140" vector-effect="non-scaling-stroke" d="   M 1260.95 382.22   Q 1261.45 383.18 1262.55 383.21"></path>
    <path stroke="#ffc700" vector-effect="non-scaling-stroke" d="   M 1264.47 384.44   Q 1264.42 384.78 1264.73 385.02   Q 1265.01 385.24 1265.26 384.97"></path>
    <path stroke="#948140" vector-effect="non-scaling-stroke" d="   M 1274.70 391.84   Q 1276.01 394.05 1278.43 395.03"></path>
    <path stroke="#948140" vector-effect="non-scaling-stroke" d="   M 1281.00 397.20   Q 1281.04 397.34 1281.08 397.50   Q 1281.15 397.80 1281.38 398.02   L 1293.13 409.72"></path>
    <path stroke="#ffc700" vector-effect="non-scaling-stroke" d="   M 1295.11 411.77   Q 1296.16 414.24 1298.50 415.75"></path>
    <path stroke="#ffc700" vector-effect="non-scaling-stroke" d="   M 1298.88 416.29   Q 1299.29 418.57 1301.44 419.40"></path>
    <path stroke="#ffc700" vector-effect="non-scaling-stroke" d="   M 1303.03 421.91   Q 1304.86 426.29 1308.15 429.64"></path>
    <path stroke="#ffc700" vector-effect="non-scaling-stroke" d="   M 1308.21 429.73   L 1319.36 452.59"></path>
    <path stroke="#948140" vector-effect="non-scaling-stroke" d="   M 1319.70 452.92   Q 1319.68 455.11 1320.95 456.12"></path>
    <path stroke="#ffc700" vector-effect="non-scaling-stroke" d="   M 1321.06 456.51   Q 1321.04 458.20 1321.77 458.27"></path>
    <path stroke="#ffc700" vector-effect="non-scaling-stroke" d="   M 1321.77 458.27   Q 1321.53 460.37 1322.73 462.45"></path>
    <path stroke="#948140" vector-effect="non-scaling-stroke" d="   M 1322.73 462.45   Q 1323.14 465.28 1324.43 467.54"></path>
    <path stroke="#948140" vector-effect="non-scaling-stroke" d="   M 1324.43 467.54   L 1325.89 473.85"></path>
    <path stroke="#ffc700" vector-effect="non-scaling-stroke" d="   M 1326.09 474.75   Q 1326.00 475.37 1326.19 475.73"></path>
    <path stroke="#948140" vector-effect="non-scaling-stroke" d="   M 1326.19 475.73   Q 1326.28 476.76 1326.74 477.55"></path>
    <path stroke="#948140" vector-effect="non-scaling-stroke" d="   M 1327.04 479.95   Q 1326.73 481.98 1327.62 484.28"></path>
    <path stroke="#ffc700" vector-effect="non-scaling-stroke" d="   M 1327.93 488.68   L 1328.52 495.20"></path>
    <path stroke="#948140" vector-effect="non-scaling-stroke" d="   M 1329.14 503.32   Q 1328.73 503.97 1328.73 505.75   Q 1328.74 547.25 1328.77 588.75   Q 1328.78 598.19 1329.15 607.60"></path>
    <path stroke="#948140" vector-effect="non-scaling-stroke" d="   M 1329.05 773.99   L 1328.63 884.29"></path>
    <path stroke="#ffc700" vector-effect="non-scaling-stroke" d="   M 1328.63 884.29   Q 1322.66 880.24 1316.99 876.33   Q 1309.54 871.19 1304.87 869.15   Q 1296.92 865.68 1288.20 864.31   Q 1277.99 862.72 1270.36 862.62   Q 1257.21 862.46 1231.92 863.78   C 1216.45 864.58 1203.73 865.91 1190.22 865.93   Q 1168.42 865.97 1146.12 864.89   C 1139.44 864.57 1132.80 864.85 1126.51 865.48   Q 1113.97 866.74 1099.51 869.32"></path>
    <path stroke="#8f8b4c" vector-effect="non-scaling-stroke" d="   M 1099.51 869.32   Q 1093.81 864.05 1088.94 860.57   Q 1085.90 858.39 1081.73 857.69"></path>
    <path stroke="#ffc700" vector-effect="non-scaling-stroke" d="   M 1081.73 857.69   L 1080.07 857.53"></path>
    <path stroke="#8f8b4c" vector-effect="non-scaling-stroke" d="   M 1080.07 857.53   Q 1074.34 857.63 1069.50 861.25   Q 1050.06 875.79 1033.15 886.54   Q 1016.69 896.99 999.43 906.04   Q 993.96 908.91 988.72 911.52"></path>
    <path stroke="#8b975c" vector-effect="non-scaling-stroke" d="   M 988.72 911.52   Q 976.44 917.50 964.14 922.67   Q 954.38 926.78 944.48 930.60   Q 943.83 930.20 943.44 930.87   Q 920.67 939.19 897.20 945.21   Q 889.60 947.16 888.00 947.33   Q 883.22 947.83 878.45 946.30   Q 875.26 945.28 872.60 944.52"></path>
    <path stroke="#8f8b4c" vector-effect="non-scaling-stroke" d="   M 872.60 944.52   Q 810.37 927.58 755.13 895.37   Q 728.87 880.06 703.54 861.38   C 698.64 857.76 695.21 856.04 689.51 857.71   Q 686.22 858.67 683.53 860.43"></path>
    <path stroke="#ffc700" vector-effect="non-scaling-stroke" d="   M 683.53 860.43   Q 655.13 863.73 626.74 865.16   Q 617.87 865.61 606.75 865.59   Q 554.96 865.48 540.02 865.58   Q 503.83 865.84 491.96 866.56   Q 472.55 867.74 451.13 870.59   Q 448.12 870.99 445.32 870.22   A 1.40 1.39 -83.1 0 1 444.29 868.90   L 444.13 859.70"></path>
    <path stroke="#948140" vector-effect="non-scaling-stroke" d="   M 444.13 859.70   L 444.09 502.51"></path>
    <path stroke="#ffc700" vector-effect="non-scaling-stroke" d="   M 444.55 495.04   Q 444.94 494.76 444.67 494.24"></path>
    <path stroke="#948140" vector-effect="non-scaling-stroke" d="   M 444.67 494.24   Q 445.34 491.77 444.97 489.26"></path>
    <path stroke="#948140" vector-effect="non-scaling-stroke" d="   M 445.34 487.21   L 446.06 480.48"></path>
    <path stroke="#948140" vector-effect="non-scaling-stroke" d="   M 446.24 479.21   Q 446.98 476.98 446.66 474.99"></path>
    <path stroke="#948140" vector-effect="non-scaling-stroke" d="   M 447.09 473.80   Q 447.80 472.24 447.75 470.75"></path>
    <path stroke="#948140" vector-effect="non-scaling-stroke" d="   M 447.91 470.05   Q 448.64 468.93 448.45 467.69"></path>
    <path stroke="#948140" vector-effect="non-scaling-stroke" d="   M 448.79 466.54   Q 449.33 466.03 449.21 465.03"></path>
    <path stroke="#948140" vector-effect="non-scaling-stroke" d="   M 449.57 464.05   Q 450.55 462.75 450.26 461.51"></path>
    <path stroke="#948140" vector-effect="non-scaling-stroke" d="   M 450.38 461.37   Q 451.54 460.55 451.26 458.51"></path>
    <path stroke="#948140" vector-effect="non-scaling-stroke" d="   M 451.26 458.51   Q 451.98 458.54 451.96 456.78"></path>
    <path stroke="#ffc700" vector-effect="non-scaling-stroke" d="   M 451.96 456.78   Q 452.37 456.43 452.24 455.79"></path>
    <path stroke="#948140" vector-effect="non-scaling-stroke" d="   M 452.86 454.47   Q 453.73 453.82 453.46 452.71"></path>
    <path stroke="#948140" vector-effect="non-scaling-stroke" d="   M 453.64 452.25   Q 455.31 449.80 455.85 446.98"></path>
    <path stroke="#948140" vector-effect="non-scaling-stroke" d="   M 456.95 444.56   L 460.57 437.17"></path>
    <path stroke="#948140" vector-effect="non-scaling-stroke" d="   M 461.22 436.20   Q 461.51 435.97 461.50 435.54"></path>
    <path stroke="#ffc700" vector-effect="non-scaling-stroke" d="   M 461.87 434.75   Q 462.23 434.75 462.30 434.25"></path>
    <path stroke="#948140" vector-effect="non-scaling-stroke" d="   M 462.77 433.29   Q 463.62 432.71 463.80 431.54"></path>
    <path stroke="#948140" vector-effect="non-scaling-stroke" d="   M 464.57 430.29   Q 465.93 428.98 466.41 427.19"></path>
    <path stroke="#948140" vector-effect="non-scaling-stroke" d="   M 467.06 426.28   Q 467.79 425.80 468.00 424.76"></path>
    <path stroke="#948140" vector-effect="non-scaling-stroke" d="   M 468.52 424.02   Q 469.29 423.43 469.55 422.53"></path>
    <path stroke="#948140" vector-effect="non-scaling-stroke" d="   M 470.29 421.52   Q 471.19 420.90 471.45 419.74"></path>
    <path stroke="#948140" vector-effect="non-scaling-stroke" d="   M 472.75 418.06   Q 473.91 417.46 474.31 416.03"></path>
    <path stroke="#948140" vector-effect="non-scaling-stroke" d="   M 475.92 414.05   Q 477.98 412.67 479.08 410.49"></path>
    <path stroke="#948140" vector-effect="non-scaling-stroke" d="   M 479.93 409.26   Q 483.44 406.58 485.85 402.99"></path>
    <path stroke="#948140" vector-effect="non-scaling-stroke" d="   M 486.03 402.79   L 492.18 396.95"></path>
    <path stroke="#948140" vector-effect="non-scaling-stroke" d="   M 494.77 394.74   Q 496.45 393.95 497.57 392.33"></path>
    <path stroke="#ffc700" vector-effect="non-scaling-stroke" d="   M 510.70 383.03   Q 511.76 383.04 512.00 382.31"></path>
    <path stroke="#ffc700" vector-effect="non-scaling-stroke" d="   M 512.00 382.31   Q 513.97 382.04 514.35 380.68"></path>
    <path stroke="#948140" vector-effect="non-scaling-stroke" d="   M 518.62 378.35   Q 523.72 376.86 527.45 374.03"></path>
    <path stroke="#ffc700" vector-effect="non-scaling-stroke" d="   M 529.72 373.04   Q 531.83 373.15 533.53 371.50"></path>
    <path stroke="#948140" vector-effect="non-scaling-stroke" d="   M 534.69 370.80   Q 536.01 371.11 535.70 370.44"></path>
    <path stroke="#ffc700" vector-effect="non-scaling-stroke" d="   M 542.74 368.08   Q 543.90 368.59 545.01 367.30"></path>
    <path stroke="#ffc700" vector-effect="non-scaling-stroke" d="   M 545.26 367.35   L 553.21 365.26   Q 553.25 365.25 553.25 365.21   Q 553.27 365.08 553.29 364.96"></path>
    <path stroke="#948140" vector-effect="non-scaling-stroke" d="   M 553.74 365.00   Q 555.85 365.10 557.75 364.07"></path>
    <path stroke="#ffc700" vector-effect="non-scaling-stroke" d="   M 558.77 364.02   Q 561.03 364.41 561.61 363.34"></path>
    <path stroke="#ffc700" vector-effect="non-scaling-stroke" d="   M 563.78 363.05   Q 565.25 363.31 566.31 362.47"></path>
    <path stroke="#ffc700" vector-effect="non-scaling-stroke" d="   M 570.38 362.12   Q 573.72 363.01 576.34 361.55"></path>
    <path stroke="#947c40" vector-effect="non-scaling-stroke" d="   M 1237.04 370.21   Q 1236.52 370.38 1235.96 370.29"></path>
    <path stroke="#947c40" vector-effect="non-scaling-stroke" d="   M 444.67 494.24   Q 444.62 494.26 444.56 494.27"></path>
    <path stroke="#947c40" vector-effect="non-scaling-stroke" d="   M 1326.30 475.18   L 1326.19 475.73"></path>
    <path stroke="#8f864c" vector-effect="non-scaling-stroke" d="   M 1080.07 857.53   Q 1081.04 857.91 1081.73 857.69"></path>
    <path stroke="#8f864c" vector-effect="non-scaling-stroke" d="   M 1099.51 869.32   Q 1120.87 891.25 1143.29 912.16   Q 1149.36 917.82 1150.81 920.67   Q 1153.74 926.40 1151.52 932.70   C 1150.35 936.00 1146.89 940.07 1144.37 942.37   Q 1126.63 958.62 1105.53 972.24   Q 1047.86 1009.47 981.33 1026.83"></path>
    <path stroke="#1b56a8" vector-effect="non-scaling-stroke" d="   M 981.33 1026.83   Q 982.52 1026.36 982.57 1025.22   Q 984.97 970.00 987.55 914.78   Q 987.61 913.40 988.72 911.52"></path>
    <path stroke="#1b56a8" vector-effect="non-scaling-stroke" d="   M 872.60 944.52   Q 872.47 947.45 869.21 951.65"></path>
    <path stroke="#1663b9" vector-effect="non-scaling-stroke" d="   M 869.21 951.65   Q 845.06 955.61 831.50 957.49   Q 758.88 967.55 685.97 959.88"></path>
    <path stroke="#24408c" vector-effect="non-scaling-stroke" d="   M 685.97 959.88   Q 687.00 959.86 687.49 959.47   Q 687.91 959.12 687.77 958.17   Q 681.23 913.45 674.68 868.33"></path>
    <path stroke="#8f864c" vector-effect="non-scaling-stroke" d="   M 674.68 868.33   L 683.53 860.43"></path>
    <path stroke="#947c40" vector-effect="non-scaling-stroke" d="   M 1322.87 461.47   L 1322.73 462.45"></path>
    <path stroke="#947c40" vector-effect="non-scaling-stroke" d="   M 1225.21 366.43   Q 1225.12 366.49 1225.03 366.55"></path>
    <path stroke="#947c40" vector-effect="non-scaling-stroke" d="   M 1329.17 911.79   Q 1328.14 897.45 1328.63 884.29"></path>
    <path stroke="#116fc9" vector-effect="non-scaling-stroke" d="   M 885.09 1038.17   L 869.21 951.65"></path>
    <path stroke="#947c40" vector-effect="non-scaling-stroke" d="   M 444.13 859.70   Q 444.04 860.50 443.79 860.75"></path>
    <path stroke="#947c40" vector-effect="non-scaling-stroke" d="   M 674.68 868.33   Q 650.88 892.24 626.86 915.36   Q 622.73 919.32 621.08 923.36   Q 618.80 928.90 621.52 934.48   C 622.56 936.59 624.80 939.14 626.37 940.63   Q 634.32 948.10 642.95 954.69"></path>
    <path stroke="#869f6d" vector-effect="non-scaling-stroke" d="   M 642.95 954.69   Q 666.30 972.43 690.35 986.17   Q 779.61 1037.15 885.09 1038.17"></path>
    <path stroke="#8b925c" vector-effect="non-scaling-stroke" d="   M 885.09 1038.17   Q 932.98 1038.44 981.33 1026.83"></path>
    <path stroke="#947c40" vector-effect="non-scaling-stroke" d="   M 1329.19 1024.01   Q 1328.06 1037.44 1328.91 1051.00"></path>
    <path stroke="#947c40" vector-effect="non-scaling-stroke" d="   M 1328.46 1061.26   L 1328.13 1065.44"></path>
    <path stroke="#947c40" vector-effect="non-scaling-stroke" d="   M 1327.63 1071.29   L 1327.07 1074.86"></path>
    <path stroke="#947c40" vector-effect="non-scaling-stroke" d="   M 1326.73 1078.45   Q 1326.23 1079.15 1326.54 1080.05"></path>
    <path stroke="#947c40" vector-effect="non-scaling-stroke" d="   M 1325.92 1083.46   Q 1325.51 1084.21 1325.77 1084.96"></path>
    <path stroke="#947c40" vector-effect="non-scaling-stroke" d="   M 1325.13 1087.04   Q 1324.64 1088.35 1324.74 1089.50"></path>
    <path stroke="#947c40" vector-effect="non-scaling-stroke" d="   M 1324.25 1091.62   Q 1323.45 1092.22 1323.73 1093.03"></path>
    <path stroke="#947c40" vector-effect="non-scaling-stroke" d="   M 1322.61 1097.02   Q 1321.63 1098.24 1321.83 1099.55"></path>
    <path stroke="#947c40" vector-effect="non-scaling-stroke" d="   M 1320.07 1103.91   Q 1319.52 1104.85 1319.75 1105.27"></path>
    <path stroke="#947c40" vector-effect="non-scaling-stroke" d="   M 1319.36 1106.39   Q 1317.68 1108.34 1317.25 1111.10"></path>
    <path stroke="#947c40" vector-effect="non-scaling-stroke" d="   M 1316.87 1112.06   Q 1314.96 1114.32 1314.46 1117.32"></path>
    <path stroke="#947c40" vector-effect="non-scaling-stroke" d="   M 1314.30 1117.59   Q 1311.85 1120.70 1310.71 1124.41"></path>
    <path stroke="#947c40" vector-effect="non-scaling-stroke" d="   M 1309.51 1126.52   Q 1307.77 1128.07 1307.25 1130.31"></path>
    <path stroke="#947c40" vector-effect="non-scaling-stroke" d="   M 1305.15 1133.43   Q 1303.98 1134.21 1304.17 1134.97"></path>
    <path stroke="#947c40" vector-effect="non-scaling-stroke" d="   M 1296.17 1144.84   Q 1293.52 1146.49 1292.61 1148.97"></path>
    <path stroke="#947c40" vector-effect="non-scaling-stroke" d="   M 1289.24 1152.44   L 1013.16 1428.37   Q 1013.01 1428.52 1013.02 1428.73   Q 1013.02 1429.17 1012.87 1428.93"></path>
    <path stroke="#947c40" vector-effect="non-scaling-stroke" d="   M 982.51 1459.29   L 981.74 1459.41"></path>
    <path stroke="#947c40" vector-effect="non-scaling-stroke" d="   M 942.49 1484.14   Q 941.71 1484.14 940.99 1484.40"></path>
    <path stroke="#947c40" vector-effect="non-scaling-stroke" d="   M 928.28 1489.22   L 927.03 1489.32"></path>
    <path stroke="#947c40" vector-effect="non-scaling-stroke" d="   M 854.48 1491.84   Q 854.09 1491.75 853.74 1491.80"></path>
    <path stroke="#947c40" vector-effect="non-scaling-stroke" d="   M 837.25 1486.87   Q 837.22 1485.82 835.94 1486.28"></path>
    <path stroke="#947c40" vector-effect="non-scaling-stroke" d="   M 835.25 1486.01   Q 833.86 1484.67 831.92 1484.75"></path>
    <path stroke="#947c40" vector-effect="non-scaling-stroke" d="   M 831.51 1484.51   Q 828.89 1482.54 825.71 1481.96"></path>
    <path stroke="#947c40" vector-effect="non-scaling-stroke" d="   M 820.31 1479.32   Q 818.47 1477.47 815.87 1476.99"></path>
    <path stroke="#947c40" vector-effect="non-scaling-stroke" d="   M 798.79 1465.68   Q 798.72 1465.21 798.17 1465.31"></path>
    <path stroke="#947c40" vector-effect="non-scaling-stroke" d="   M 796.34 1463.61   Q 795.36 1461.55 793.25 1461.17"></path>
    <path stroke="#947c40" vector-effect="non-scaling-stroke" d="   M 743.47 1411.91   Q 655.12 1323.57 566.75 1235.24   Q 566.14 1234.64 565.70 1235.44"></path>
    <path stroke="#947c40" vector-effect="non-scaling-stroke" d="   M 466.96 1132.50   Q 466.72 1130.13 464.69 1129.17"></path>
    <path stroke="#947c40" vector-effect="non-scaling-stroke" d="   M 460.39 1121.63   Q 459.35 1117.71 457.00 1114.55"></path>
    <path stroke="#947c40" vector-effect="non-scaling-stroke" d="   M 450.21 1096.79   Q 450.60 1095.00 449.52 1094.65"></path>
    <path stroke="#947c40" vector-effect="non-scaling-stroke" d="   M 448.68 1092.49   L 448.63 1091.79"></path>
    <path stroke="#947c40" vector-effect="non-scaling-stroke" d="   M 448.27 1089.51   Q 448.30 1088.46 447.86 1087.46"></path>
    <path stroke="#947c40" vector-effect="non-scaling-stroke" d="   M 447.69 1086.73   Q 447.86 1084.88 447.08 1084.17"></path>
    <path stroke="#947c40" vector-effect="non-scaling-stroke" d="   M 446.69 1082.21   Q 446.79 1081.03 446.29 1079.97"></path>
    <path stroke="#947c40" vector-effect="non-scaling-stroke" d="   M 445.93 1077.28   Q 446.09 1075.79 445.55 1075.18"></path>
    <path stroke="#947c40" vector-effect="non-scaling-stroke" d="   M 444.95 1068.23   L 444.56 1060.74"></path>
    <path stroke="#947c40" vector-effect="non-scaling-stroke" d="   M 443.95 1043.97   L 443.79 983.42"></path>
    <path stroke="#947c40" vector-effect="non-scaling-stroke" d="   M 451.96 456.78   Q 451.94 456.66 451.92 456.55"></path>
    <path stroke="#1a59ac" vector-effect="non-scaling-stroke" d="   M 685.97 959.88   L 642.95 954.69"></path>
    <path stroke="#948140" vector-effect="non-scaling-stroke" d="   M 721.52 679.37   A 25.76 25.76 0.0 0 0 685.09 679.48   L 649.46 715.34   A 25.76 25.76 0.0 0 0 649.57 751.77   L 685.44 787.40   A 25.76 25.76 0.0 0 0 721.87 787.29   L 757.50 751.43   A 25.76 25.76 0.0 0 0 757.39 715.00   L 721.52 679.37"></path>
    <path stroke="#948140" vector-effect="non-scaling-stroke" d="   M 1059.09 787.16   A 26.04 26.04 0.0 0 0 1095.92 787.35   L 1131.56 752.08   A 26.04 26.04 0.0 0 0 1131.76 715.25   L 1096.48 679.60   A 26.04 26.04 0.0 0 0 1059.65 679.41   L 1024.01 714.68   A 26.04 26.04 0.0 0 0 1023.81 751.51   L 1059.09 787.16"></path>
  </g>
  <path fill="#ffc100" d="   M 1090.15 360.74   Q 1090.19 361.21 1089.52 361.23   Q 1085.89 361.34 1082.25 361.34   Q 833.26 361.44 584.27 361.44   Q 583.72 361.44 583.85 360.75   L 1090.15 360.74   Z"></path>
  <path fill="#ffcc00" d="   M 1171.76 360.81   L 1183.46 361.16   L 1191.94 361.65   Q 1194.81 362.90 1197.53 362.12   L 1203.52 362.49   Q 1204.95 363.44 1206.80 363.01   L 1210.68 363.29   Q 1210.63 364.24 1212.47 363.71   Q 1213.80 364.25 1215.45 364.10   Q 1215.89 364.96 1217.21 364.51   L 1219.18 365.05   Q 1220.55 365.88 1222.02 365.77   Q 1222.25 365.71 1222.45 365.85   Q 1223.52 366.71 1225.03 366.55   Q 1227.64 367.94 1230.53 368.17   L 1235.97 370.04   Q 1235.96 370.17 1235.96 370.29   Q 1236.55 370.62 1237.21 370.46   Q 1237.34 370.54 1237.48 370.61   Q 1237.81 370.78 1238.22 370.71   L 1239.65 371.55   Q 1241.22 373.08 1243.30 373.02   L 1245.94 374.16   Q 1246.01 374.33 1246.14 374.52   Q 1246.26 374.70 1246.46 374.81   Q 1249.98 376.62 1253.52 378.37   Q 1253.97 378.60 1254.45 378.49   L 1256.59 379.62   Q 1258.04 381.61 1260.53 382.02   Q 1260.71 382.00 1260.95 382.22   Q 1261.45 383.18 1262.55 383.21   L 1264.47 384.44   Q 1264.42 384.78 1264.73 385.02   Q 1265.01 385.24 1265.26 384.97   L 1274.70 391.84   Q 1276.01 394.05 1278.43 395.03   L 1281.00 397.20   Q 1281.04 397.34 1281.08 397.50   Q 1281.15 397.80 1281.38 398.02   L 1293.13 409.72   Q 1294.32 410.28 1295.11 411.77   Q 1296.16 414.24 1298.50 415.75   Q 1298.88 415.97 1298.88 416.29   Q 1299.29 418.57 1301.44 419.40   Q 1302.42 420.44 1303.03 421.91   Q 1304.86 426.29 1308.15 429.64   Q 1308.18 429.68 1308.21 429.73   L 1319.36 452.59   Q 1319.47 452.46 1319.70 452.92   Q 1319.68 455.11 1320.95 456.12   L 1321.06 456.51   Q 1321.04 458.20 1321.77 458.27   Q 1321.53 460.37 1322.73 462.45   Q 1323.14 465.28 1324.43 467.54   L 1325.89 473.85   L 1326.09 474.75   Q 1326.00 475.37 1326.19 475.73   Q 1326.28 476.76 1326.74 477.55   L 1327.04 479.95   Q 1326.73 481.98 1327.62 484.28   L 1327.93 488.68   L 1328.52 495.20   Q 1328.14 499.70 1329.14 503.32   Q 1328.73 503.97 1328.73 505.75   Q 1328.74 547.25 1328.77 588.75   Q 1328.78 598.19 1329.15 607.60   L 1329.05 773.99   L 1328.63 884.29   Q 1322.66 880.24 1316.99 876.33   Q 1309.54 871.19 1304.87 869.15   Q 1296.92 865.68 1288.20 864.31   Q 1277.99 862.72 1270.36 862.62   Q 1257.21 862.46 1231.92 863.78   C 1216.45 864.58 1203.73 865.91 1190.22 865.93   Q 1168.42 865.97 1146.12 864.89   C 1139.44 864.57 1132.80 864.85 1126.51 865.48   Q 1113.97 866.74 1099.51 869.32   Q 1093.81 864.05 1088.94 860.57   Q 1085.90 858.39 1081.73 857.69   L 1080.07 857.53   Q 1074.34 857.63 1069.50 861.25   Q 1050.06 875.79 1033.15 886.54   Q 1016.69 896.99 999.43 906.04   Q 993.96 908.91 988.72 911.52   Q 976.44 917.50 964.14 922.67   Q 954.38 926.78 944.48 930.60   Q 943.83 930.20 943.44 930.87   Q 920.67 939.19 897.20 945.21   Q 889.60 947.16 888.00 947.33   Q 883.22 947.83 878.45 946.30   Q 875.26 945.28 872.60 944.52   Q 810.37 927.58 755.13 895.37   Q 728.87 880.06 703.54 861.38   C 698.64 857.76 695.21 856.04 689.51 857.71   Q 686.22 858.67 683.53 860.43   Q 655.13 863.73 626.74 865.16   Q 617.87 865.61 606.75 865.59   Q 554.96 865.48 540.02 865.58   Q 503.83 865.84 491.96 866.56   Q 472.55 867.74 451.13 870.59   Q 448.12 870.99 445.32 870.22   A 1.40 1.39 -83.1 0 1 444.29 868.90   L 444.13 859.70   L 444.09 502.51   L 444.55 495.04   Q 444.94 494.76 444.67 494.24   Q 445.34 491.77 444.97 489.26   L 445.34 487.21   L 446.06 480.48   L 446.24 479.21   Q 446.98 476.98 446.66 474.99   Q 447.01 474.69 447.09 473.80   Q 447.80 472.24 447.75 470.75   L 447.91 470.05   Q 448.64 468.93 448.45 467.69   L 448.79 466.54   Q 449.33 466.03 449.21 465.03   L 449.57 464.05   Q 450.55 462.75 450.26 461.51   Q 450.32 461.44 450.38 461.37   Q 451.54 460.55 451.26 458.51   Q 451.98 458.54 451.96 456.78   Q 452.37 456.43 452.24 455.79   L 452.86 454.47   Q 453.73 453.82 453.46 452.71   Q 453.65 452.37 453.64 452.25   Q 455.31 449.80 455.85 446.98   L 456.95 444.56   L 460.57 437.17   Q 460.86 436.94 461.22 436.20   Q 461.51 435.97 461.50 435.54   L 461.87 434.75   Q 462.23 434.75 462.30 434.25   L 462.77 433.29   Q 463.62 432.71 463.80 431.54   Q 464.37 430.96 464.57 430.29   Q 465.93 428.98 466.41 427.19   L 467.06 426.28   Q 467.79 425.80 468.00 424.76   Q 468.34 424.44 468.52 424.02   Q 469.29 423.43 469.55 422.53   L 470.29 421.52   Q 471.19 420.90 471.45 419.74   L 472.75 418.06   Q 473.91 417.46 474.31 416.03   L 475.92 414.05   Q 477.98 412.67 479.08 410.49   Q 479.74 409.85 479.93 409.26   Q 483.44 406.58 485.85 402.99   Q 485.95 402.93 486.03 402.79   L 492.18 396.95   L 494.77 394.74   Q 496.45 393.95 497.57 392.33   L 510.70 383.03   Q 511.76 383.04 512.00 382.31   Q 513.97 382.04 514.35 380.68   L 518.62 378.35   Q 523.72 376.86 527.45 374.03   L 529.72 373.04   Q 531.83 373.15 533.53 371.50   L 534.69 370.80   Q 536.01 371.11 535.70 370.44   L 542.74 368.08   Q 543.90 368.59 545.01 367.30   Q 545.13 367.33 545.26 367.35   L 553.21 365.26   Q 553.25 365.25 553.25 365.21   Q 553.27 365.08 553.29 364.96   L 553.74 365.00   Q 555.85 365.10 557.75 364.07   Q 558.30 364.13 558.77 364.02   Q 561.03 364.41 561.61 363.34   L 563.78 363.05   Q 565.25 363.31 566.31 362.47   L 570.38 362.12   Q 573.72 363.01 576.34 361.55   Q 580.75 362.18 583.85 360.75   Q 583.72 361.44 584.27 361.44   Q 833.26 361.44 1082.25 361.34   Q 1085.89 361.34 1089.52 361.23   Q 1090.19 361.21 1090.15 360.74   L 1171.76 360.81   Z   M 721.52 679.37   A 25.76 25.76 0.0 0 0 685.09 679.48   L 649.46 715.34   A 25.76 25.76 0.0 0 0 649.57 751.77   L 685.44 787.40   A 25.76 25.76 0.0 0 0 721.87 787.29   L 757.50 751.43   A 25.76 25.76 0.0 0 0 757.39 715.00   L 721.52 679.37   Z   M 1059.09 787.16   A 26.04 26.04 0.0 0 0 1095.92 787.35   L 1131.56 752.08   A 26.04 26.04 0.0 0 0 1131.76 715.25   L 1096.48 679.60   A 26.04 26.04 0.0 0 0 1059.65 679.41   L 1024.01 714.68   A 26.04 26.04 0.0 0 0 1023.81 751.51   L 1059.09 787.16   Z"></path>
  <path fill="#28367f" d="   M 1183.46 361.16   L 1171.76 360.81   L 1183.46 361.16   Z"></path>
  <path fill="#ffc100" d="   M 576.34 361.55   Q 573.72 363.01 570.38 362.12   Q 572.84 361.20 576.34 361.55   Z"></path>
  <path fill="#ffc100" d="   M 1197.53 362.12   Q 1194.81 362.90 1191.94 361.65   Q 1195.17 361.16 1197.53 362.12   Z"></path>
  <path fill="#ffc100" d="   M 566.31 362.47   Q 565.25 363.31 563.78 363.05   Q 564.31 362.03 566.31 362.47   Z"></path>
  <path fill="#ffc100" d="   M 1206.80 363.01   Q 1204.95 363.44 1203.52 362.49   Q 1205.87 362.05 1206.80 363.01   Z"></path>
  <path fill="#ffc100" d="   M 561.61 363.34   Q 561.03 364.41 558.77 364.02   Q 559.40 362.79 561.61 363.34   Z"></path>
  <path fill="#ffc100" d="   M 1212.47 363.71   Q 1210.63 364.24 1210.68 363.29   Q 1211.65 363.08 1212.47 363.71   Z"></path>
  <path fill="#28367f" d="   M 557.75 364.07   Q 555.85 365.10 553.74 365.00   Q 555.63 363.85 557.75 364.07   Z"></path>
  <path fill="#28367f" d="   M 1217.21 364.51   Q 1215.89 364.96 1215.45 364.10   Q 1216.60 363.90 1217.21 364.51   Z"></path>
  <path fill="#ffc100" d="   M 553.29 364.96   Q 553.27 365.08 553.25 365.21   Q 553.25 365.25 553.21 365.26   L 545.26 367.35   Q 545.88 366.42 547.13 366.50   Q 547.64 366.53 548.03 366.20   Q 548.94 365.44 550.28 365.70   Q 550.78 365.80 551.17 365.48   Q 552.16 364.67 553.29 364.96   Z"></path>
  <path fill="#28367f" d="   M 1222.02 365.77   Q 1220.55 365.88 1219.18 365.05   Q 1221.07 364.43 1222.02 365.77   Z"></path>
  <path fill="#28367f" d="   M 1225.21 366.43   Q 1225.12 366.49 1225.03 366.55   Q 1223.52 366.71 1222.45 365.85   Q 1224.34 365.29 1225.21 366.43   Z"></path>
  <path fill="#ffc100" d="   M 1225.21 366.43   Q 1228.04 366.86 1230.53 368.17   Q 1227.64 367.94 1225.03 366.55   Q 1225.12 366.49 1225.21 366.43   Z"></path>
  <path fill="#ffc100" d="   M 545.01 367.30   Q 543.90 368.59 542.74 368.08   Q 543.63 367.18 545.01 367.30   Z"></path>
  <path fill="#28367f" d="   M 1237.04 370.21   Q 1236.52 370.38 1235.96 370.29   Q 1235.96 370.17 1235.97 370.04   Q 1236.63 369.79 1237.04 370.21   Z"></path>
  <path fill="#ffc100" d="   M 1237.04 370.21   L 1237.21 370.46   Q 1236.55 370.62 1235.96 370.29   Q 1236.52 370.38 1237.04 370.21   Z"></path>
  <path fill="#28367f" d="   M 535.70 370.44   Q 536.01 371.11 534.69 370.80   L 535.70 370.44   Z"></path>
  <path fill="#28367f" d="   M 1238.22 370.71   Q 1237.81 370.78 1237.48 370.61   Q 1237.87 370.58 1238.22 370.71   Z"></path>
  <path fill="#ffc100" d="   M 533.53 371.50   Q 531.83 373.15 529.72 373.04   Q 531.37 371.42 533.53 371.50   Z"></path>
  <path fill="#ffc100" d="   M 1243.30 373.02   Q 1241.22 373.08 1239.65 371.55   Q 1241.75 371.51 1243.30 373.02   Z"></path>
  <path fill="#28367f" d="   M 527.45 374.03   Q 523.72 376.86 518.62 378.35   Q 522.61 375.33 527.45 374.03   Z"></path>
  <path fill="#28367f" d="   M 1254.45 378.49   Q 1253.97 378.60 1253.52 378.37   Q 1249.98 376.62 1246.46 374.81   Q 1246.26 374.70 1246.14 374.52   Q 1246.01 374.33 1245.94 374.16   Q 1246.38 374.00 1246.78 374.20   Q 1250.38 375.95 1253.91 377.82   Q 1254.33 378.04 1254.45 378.49   Z"></path>
  <path fill="#ffc100" d="   M 1260.53 382.02   Q 1258.04 381.61 1256.59 379.62   Q 1258.94 380.26 1260.53 382.02   Z"></path>
  <path fill="#ffc100" d="   M 514.35 380.68   Q 513.97 382.04 512.00 382.31   Q 512.93 381.14 514.35 380.68   Z"></path>
  <path fill="#ffc100" d="   M 512.00 382.31   Q 511.76 383.04 510.70 383.03   Q 511.19 382.24 512.00 382.31   Z"></path>
  <path fill="#28367f" d="   M 1262.55 383.21   Q 1261.45 383.18 1260.95 382.22   Q 1261.95 382.44 1262.55 383.21   Z"></path>
  <path fill="#ffc100" d="   M 1265.26 384.97   Q 1265.01 385.24 1264.73 385.02   Q 1264.42 384.78 1264.47 384.44   Q 1264.95 384.61 1265.26 384.97   Z"></path>
  <path fill="#28367f" d="   M 1278.43 395.03   Q 1276.01 394.05 1274.70 391.84   Q 1276.97 392.98 1278.43 395.03   Z"></path>
  <path fill="#28367f" d="   M 497.57 392.33   Q 496.45 393.95 494.77 394.74   Q 495.90 393.15 497.57 392.33   Z"></path>
  <path fill="#28367f" d="   M 492.18 396.95   L 486.03 402.79   Q 488.63 399.34 492.18 396.95   Z"></path>
  <path fill="#28367f" d="   M 1293.13 409.72   L 1281.38 398.02   Q 1281.15 397.80 1281.08 397.50   Q 1281.04 397.34 1281.00 397.20   Q 1281.87 397.50 1282.06 397.68   Q 1286.59 402.03 1290.95 406.55   Q 1292.83 408.49 1293.13 409.72   Z"></path>
  <path fill="#28367f" d="   M 485.85 402.99   Q 483.44 406.58 479.93 409.26   Q 482.30 405.59 485.85 402.99   Z"></path>
  <path fill="#28367f" d="   M 479.08 410.49   Q 477.98 412.67 475.92 414.05   Q 477.02 411.85 479.08 410.49   Z"></path>
  <path fill="#ffc100" d="   M 1298.50 415.75   Q 1296.16 414.24 1295.11 411.77   Q 1297.32 413.31 1298.50 415.75   Z"></path>
  <path fill="#28367f" d="   M 474.31 416.03   Q 473.91 417.46 472.75 418.06   Q 472.85 416.97 474.31 416.03   Z"></path>
  <path fill="#ffc100" d="   M 1301.44 419.40   Q 1299.29 418.57 1298.88 416.29   Q 1300.64 417.39 1301.44 419.40   Z"></path>
  <path fill="#28367f" d="   M 471.45 419.74   Q 471.19 420.90 470.29 421.52   Q 470.33 420.32 471.45 419.74   Z"></path>
  <path fill="#ffc100" d="   M 1308.15 429.64   Q 1304.86 426.29 1303.03 421.91   Q 1306.33 425.26 1308.15 429.64   Z"></path>
  <path fill="#28367f" d="   M 469.55 422.53   Q 469.29 423.43 468.52 424.02   Q 468.47 423.16 469.55 422.53   Z"></path>
  <path fill="#28367f" d="   M 468.00 424.76   Q 467.79 425.80 467.06 426.28   Q 467.20 425.32 468.00 424.76   Z"></path>
  <path fill="#28367f" d="   M 466.41 427.19   Q 465.93 428.98 464.57 430.29   Q 464.92 428.42 466.41 427.19   Z"></path>
  <path fill="#ffc100" d="   M 1319.36 452.59   L 1308.21 429.73   Q 1308.64 429.90 1308.91 430.34   Q 1314.73 439.81 1318.91 450.11   Q 1318.95 450.20 1319.22 450.66   Q 1319.63 451.36 1319.36 452.59   Z"></path>
  <path fill="#28367f" d="   M 463.80 431.54   Q 463.62 432.71 462.77 433.29   Q 462.33 432.48 463.80 431.54   Z"></path>
  <path fill="#ffc100" d="   M 462.30 434.25   Q 462.23 434.75 461.87 434.75   Q 461.99 434.44 462.30 434.25   Z"></path>
  <path fill="#28367f" d="   M 461.50 435.54   Q 461.51 435.97 461.22 436.20   L 461.50 435.54   Z"></path>
  <path fill="#28367f" d="   M 460.57 437.17   L 456.95 444.56   Q 457.87 440.37 460.57 437.17   Z"></path>
  <path fill="#28367f" d="   M 455.85 446.98   Q 455.31 449.80 453.64 452.25   Q 453.87 449.25 455.85 446.98   Z"></path>
  <path fill="#28367f" d="   M 453.46 452.71   Q 453.73 453.82 452.86 454.47   Q 452.67 453.22 453.46 452.71   Z"></path>
  <path fill="#28367f" d="   M 1320.95 456.12   Q 1319.68 455.11 1319.70 452.92   Q 1321.01 454.35 1320.95 456.12   Z"></path>
  <path fill="#ffc100" d="   M 452.24 455.79   Q 452.37 456.43 451.96 456.78   Q 451.94 456.66 451.92 456.55   Q 452.02 456.14 452.24 455.79   Z"></path>
  <path fill="#28367f" d="   M 451.92 456.55   Q 451.94 456.66 451.96 456.78   Q 451.98 458.54 451.26 458.51   Q 450.77 457.53 451.92 456.55   Z"></path>
  <path fill="#ffc100" d="   M 1321.77 458.27   Q 1321.04 458.20 1321.06 456.51   Q 1321.90 457.32 1321.77 458.27   Z"></path>
  <path fill="#ffc100" d="   M 1322.87 461.47   L 1322.73 462.45   Q 1321.53 460.37 1321.77 458.27   Q 1322.62 459.79 1322.87 461.47   Z"></path>
  <path fill="#28367f" d="   M 451.26 458.51   Q 451.54 460.55 450.38 461.37   Q 450.13 459.79 451.26 458.51   Z"></path>
  <path fill="#28367f" d="   M 450.26 461.51   Q 450.55 462.75 449.57 464.05   Q 449.08 462.39 450.26 461.51   Z"></path>
  <path fill="#28367f" d="   M 1324.43 467.54   Q 1323.14 465.28 1322.73 462.45   L 1322.87 461.47   Q 1324.47 464.35 1324.43 467.54   Z"></path>
  <path fill="#28367f" d="   M 449.21 465.03   Q 449.33 466.03 448.79 466.54   Q 448.32 465.81 449.21 465.03   Z"></path>
  <path fill="#28367f" d="   M 1325.89 473.85   L 1324.43 467.54   Q 1325.34 468.22 1325.29 469.96   Q 1325.28 470.45 1325.52 470.88   Q 1326.25 472.19 1325.89 473.85   Z"></path>
  <path fill="#28367f" d="   M 448.45 467.69   Q 448.64 468.93 447.91 470.05   Q 447.49 468.31 448.45 467.69   Z"></path>
  <path fill="#28367f" d="   M 447.75 470.75   Q 447.80 472.24 447.09 473.80   Q 446.59 471.50 447.75 470.75   Z"></path>
  <path fill="#ffc100" d="   M 1326.30 475.18   L 1326.19 475.73   Q 1326.00 475.37 1326.09 474.75   L 1326.30 475.18   Z"></path>
  <path fill="#28367f" d="   M 446.66 474.99   Q 446.98 476.98 446.24 479.21   Q 445.85 476.66 446.66 474.99   Z"></path>
  <path fill="#28367f" d="   M 1326.74 477.55   Q 1326.28 476.76 1326.19 475.73   L 1326.30 475.18   Q 1327.12 475.68 1326.74 477.55   Z"></path>
  <path fill="#28367f" d="   M 1327.62 484.28   Q 1326.73 481.98 1327.04 479.95   Q 1328.07 481.36 1327.62 484.28   Z"></path>
  <path fill="#28367f" d="   M 446.06 480.48   L 445.34 487.21   Q 444.84 482.93 446.06 480.48   Z"></path>
  <path fill="#ffc100" d="   M 1328.52 495.20   L 1327.93 488.68   L 1328.52 495.20   Z"></path>
  <path fill="#28367f" d="   M 444.97 489.26   Q 445.34 491.77 444.67 494.24   Q 444.62 494.26 444.56 494.27   Q 444.20 491.70 444.97 489.26   Z"></path>
  <path fill="#ffc100" d="   M 444.67 494.24   Q 444.94 494.76 444.55 495.04   L 444.56 494.27   Q 444.62 494.26 444.67 494.24   Z"></path>
  <path fill="#28367f" d="   M 444.09 502.51   L 444.13 859.70   Q 444.04 860.50 443.79 860.75   Q 443.88 860.14 443.88 859.50   Q 443.68 681.56 443.71 503.61   Q 443.71 502.87 444.09 502.51   Z"></path>
  <path fill="#28367f" d="   M 1329.15 607.60   Q 1328.78 598.19 1328.77 588.75   Q 1328.74 547.25 1328.73 505.75   Q 1328.73 503.97 1329.14 503.32   L 1329.15 607.60   Z"></path>
  <path fill="#28367f" d="   M 721.52 679.37   L 757.39 715.00   A 25.76 25.76 0.0 0 1 757.50 751.43   L 721.87 787.29   A 25.76 25.76 0.0 0 1 685.44 787.40   L 649.57 751.77   A 25.76 25.76 0.0 0 1 649.46 715.34   L 685.09 679.48   A 25.76 25.76 0.0 0 1 721.52 679.37   Z"></path>
  <path fill="#28367f" d="   M 1059.09 787.16   L 1023.81 751.51   A 26.04 26.04 0.0 0 1 1024.01 714.68   L 1059.65 679.41   A 26.04 26.04 0.0 0 1 1096.48 679.60   L 1131.76 715.25   A 26.04 26.04 0.0 0 1 1131.56 752.08   L 1095.92 787.35   A 26.04 26.04 0.0 0 1 1059.09 787.16   Z"></path>
  <path fill="#28367f" d="   M 1329.05 773.99   L 1329.17 911.79   Q 1328.14 897.45 1328.63 884.29   L 1329.05 773.99   Z"></path>
  <path fill="#1f4a98" d="   M 872.60 944.52   Q 872.47 947.45 869.21 951.65   Q 845.06 955.61 831.50 957.49   Q 758.88 967.55 685.97 959.88   Q 687.00 959.86 687.49 959.47   Q 687.91 959.12 687.77 958.17   Q 681.23 913.45 674.68 868.33   L 683.53 860.43   Q 686.22 858.67 689.51 857.71   C 695.21 856.04 698.64 857.76 703.54 861.38   Q 728.87 880.06 755.13 895.37   Q 810.37 927.58 872.60 944.52   Z"></path>
  <path fill="#1f4a98" d="   M 1080.07 857.53   Q 1081.04 857.91 1081.73 857.69   Q 1085.90 858.39 1088.94 860.57   Q 1093.81 864.05 1099.51 869.32   Q 1120.87 891.25 1143.29 912.16   Q 1149.36 917.82 1150.81 920.67   Q 1153.74 926.40 1151.52 932.70   C 1150.35 936.00 1146.89 940.07 1144.37 942.37   Q 1126.63 958.62 1105.53 972.24   Q 1047.86 1009.47 981.33 1026.83   Q 982.52 1026.36 982.57 1025.22   Q 984.97 970.00 987.55 914.78   Q 987.61 913.40 988.72 911.52   Q 993.96 908.91 999.43 906.04   Q 1016.69 896.99 1033.15 886.54   Q 1050.06 875.79 1069.50 861.25   Q 1074.34 857.63 1080.07 857.53   Z"></path>
  <path fill="#ffc100" d="   M 1081.73 857.69   Q 1081.04 857.91 1080.07 857.53   L 1081.73 857.69   Z"></path>
  <path fill="#ffc100" d="   M 444.13 859.70   L 444.29 868.90   A 1.40 1.39 -83.1 0 0 445.32 870.22   Q 448.12 870.99 451.13 870.59   Q 472.55 867.74 491.96 866.56   Q 503.83 865.84 540.02 865.58   Q 554.96 865.48 606.75 865.59   Q 617.87 865.61 626.74 865.16   Q 655.13 863.73 683.53 860.43   L 674.68 868.33   Q 650.88 892.24 626.86 915.36   Q 622.73 919.32 621.08 923.36   Q 618.80 928.90 621.52 934.48   C 622.56 936.59 624.80 939.14 626.37 940.63   Q 634.32 948.10 642.95 954.69   Q 666.30 972.43 690.35 986.17   Q 779.61 1037.15 885.09 1038.17   Q 932.98 1038.44 981.33 1026.83   Q 1047.86 1009.47 1105.53 972.24   Q 1126.63 958.62 1144.37 942.37   C 1146.89 940.07 1150.35 936.00 1151.52 932.70   Q 1153.74 926.40 1150.81 920.67   Q 1149.36 917.82 1143.29 912.16   Q 1120.87 891.25 1099.51 869.32   Q 1113.97 866.74 1126.51 865.48   C 1132.80 864.85 1139.44 864.57 1146.12 864.89   Q 1168.42 865.97 1190.22 865.93   C 1203.73 865.91 1216.45 864.58 1231.92 863.78   Q 1257.21 862.46 1270.36 862.62   Q 1277.99 862.72 1288.20 864.31   Q 1296.92 865.68 1304.87 869.15   Q 1309.54 871.19 1316.99 876.33   Q 1322.66 880.24 1328.63 884.29   Q 1328.14 897.45 1329.17 911.79   L 1329.19 1024.01   Q 1328.06 1037.44 1328.91 1051.00   L 1328.46 1061.26   L 1328.13 1065.44   L 1327.63 1071.29   L 1327.07 1074.86   L 1326.73 1078.45   Q 1326.23 1079.15 1326.54 1080.05   Q 1325.86 1081.61 1325.92 1083.46   Q 1325.51 1084.21 1325.77 1084.96   Q 1325.24 1085.94 1325.13 1087.04   Q 1324.64 1088.35 1324.74 1089.50   Q 1324.28 1090.41 1324.25 1091.62   Q 1323.45 1092.22 1323.73 1093.03   L 1322.61 1097.02   Q 1321.63 1098.24 1321.83 1099.55   Q 1321.53 1101.78 1320.07 1103.91   Q 1319.52 1104.85 1319.75 1105.27   Q 1319.38 1105.76 1319.36 1106.39   Q 1317.68 1108.34 1317.25 1111.10   L 1316.87 1112.06   Q 1314.96 1114.32 1314.46 1117.32   Q 1314.32 1117.48 1314.30 1117.59   Q 1311.85 1120.70 1310.71 1124.41   L 1309.51 1126.52   Q 1307.77 1128.07 1307.25 1130.31   Q 1306.83 1131.97 1305.15 1133.43   Q 1303.98 1134.21 1304.17 1134.97   Q 1302.77 1137.01 1301.32 1139.05   Q 1299.02 1142.30 1296.17 1144.84   Q 1293.52 1146.49 1292.61 1148.97   L 1289.24 1152.44   L 1013.16 1428.37   Q 1013.01 1428.52 1013.02 1428.73   Q 1013.02 1429.17 1012.87 1428.93   L 982.51 1459.29   L 981.74 1459.41   L 978.00 1463.02   Q 977.64 1463.36 977.19 1463.56   Q 976.47 1463.86 975.44 1464.68   Q 965.39 1472.66 954.40 1478.26   Q 954.28 1478.32 951.74 1480.00   Q 950.75 1480.66 949.56 1480.96   Q 948.12 1481.31 947.36 1481.72   Q 944.97 1483.02 942.49 1484.14   Q 941.71 1484.14 940.99 1484.40   L 928.28 1489.22   L 927.03 1489.32   L 922.45 1490.84   Q 921.98 1491.00 921.48 1490.95   Q 919.64 1490.78 918.56 1491.56   A 1.40 1.38 -60.4 0 1 917.60 1491.83   Q 916.48 1491.74 915.00 1492.51   A 1.64 1.62 34.0 0 1 914.04 1492.69   Q 911.90 1492.43 910.26 1493.29   Q 909.81 1493.53 909.29 1493.51   Q 906.59 1493.42 905.70 1493.69   Q 903.60 1494.32 902.24 1494.34   Q 899.12 1494.38 895.50 1494.39   Q 895.12 1494.39 894.86 1494.65   L 894.63 1494.88   Q 894.35 1495.16 893.95 1495.16   L 877.29 1495.16   A 0.90 0.89 66.9 0 1 876.67 1494.91   Q 876.35 1494.62 876.14 1494.48   Q 875.93 1494.34 875.55 1494.35   Q 872.61 1494.39 869.35 1494.34   Q 868.17 1494.32 865.75 1493.73   Q 864.20 1493.34 861.93 1493.50   Q 861.41 1493.54 860.99 1493.23   Q 859.90 1492.44 858.30 1492.70   Q 857.79 1492.78 857.33 1492.56   Q 855.91 1491.90 854.48 1491.84   Q 854.09 1491.75 853.74 1491.80   L 851.59 1491.08   Q 851.10 1490.92 850.60 1490.95   Q 849.63 1491.02 848.94 1490.43   Q 848.54 1490.09 848.03 1490.16   Q 846.33 1490.39 845.61 1489.62   Q 845.24 1489.22 844.71 1489.34   Q 843.95 1489.52 843.43 1489.07   Q 843.13 1488.81 842.75 1488.68   L 837.25 1486.87   Q 837.22 1485.82 835.94 1486.28   L 835.25 1486.01   Q 833.86 1484.67 831.92 1484.75   Q 831.67 1484.66 831.51 1484.51   Q 828.89 1482.54 825.71 1481.96   L 820.31 1479.32   Q 818.47 1477.47 815.87 1476.99   L 808.19 1472.69   Q 808.14 1472.66 808.09 1472.63   L 798.79 1465.68   Q 798.72 1465.21 798.17 1465.31   L 796.34 1463.61   Q 795.36 1461.55 793.25 1461.17   Q 792.16 1459.89 790.75 1458.97   Q 788.93 1457.79 788.15 1457.01   Q 765.63 1434.64 743.47 1411.91   Q 655.12 1323.57 566.75 1235.24   Q 566.14 1234.64 565.70 1235.44   L 478.96 1148.62   A 1.39 1.36 20.7 0 1 478.56 1147.76   Q 478.53 1147.36 478.36 1147.19   Q 477.41 1146.26 475.76 1144.55   Q 474.77 1143.53 474.24 1142.49   Q 473.69 1141.42 472.18 1140.25   A 0.98 0.93 -88.6 0 1 471.99 1140.04   L 466.96 1132.50   Q 466.72 1130.13 464.69 1129.17   L 460.39 1121.63   Q 459.35 1117.71 457.00 1114.55   Q 455.57 1112.24 454.64 1109.63   Q 454.03 1107.92 453.53 1107.05   Q 453.04 1106.19 452.86 1105.24   Q 452.66 1104.21 452.33 1103.37   Q 451.06 1100.11 450.21 1096.79   Q 450.60 1095.00 449.52 1094.65   Q 449.62 1093.50 448.68 1092.49   L 448.63 1091.79   Q 448.85 1090.57 448.27 1089.51   Q 448.30 1088.46 447.86 1087.46   L 447.69 1086.73   Q 447.86 1084.88 447.08 1084.17   Q 447.07 1083.20 446.69 1082.21   Q 446.79 1081.03 446.29 1079.97   L 445.93 1077.28   Q 446.09 1075.79 445.55 1075.18   L 444.95 1068.23   L 444.56 1060.74   L 443.95 1043.97   L 443.79 983.42   L 443.79 860.75   Q 444.04 860.50 444.13 859.70   Z"></path>
  <path fill="#28367f" d="   M 674.68 868.33   Q 681.23 913.45 687.77 958.17   Q 687.91 959.12 687.49 959.47   Q 687.00 959.86 685.97 959.88   L 642.95 954.69   Q 634.32 948.10 626.37 940.63   C 624.80 939.14 622.56 936.59 621.52 934.48   Q 618.80 928.90 621.08 923.36   Q 622.73 919.32 626.86 915.36   Q 650.88 892.24 674.68 868.33   Z"></path>
  <path fill="#1662b8" d="   M 988.72 911.52   Q 987.61 913.40 987.55 914.78   Q 984.97 970.00 982.57 1025.22   Q 982.52 1026.36 981.33 1026.83   Q 932.98 1038.44 885.09 1038.17   L 869.21 951.65   Q 872.47 947.45 872.60 944.52   Q 875.26 945.28 878.45 946.30   Q 883.22 947.83 888.00 947.33   Q 889.60 947.16 897.20 945.21   Q 920.67 939.19 943.44 930.87   Q 943.83 930.20 944.48 930.60   Q 954.38 926.78 964.14 922.67   Q 976.44 917.50 988.72 911.52   Z"></path>
  <path fill="#0c7cd9" d="   M 869.21 951.65   L 885.09 1038.17   Q 779.61 1037.15 690.35 986.17   Q 666.30 972.43 642.95 954.69   L 685.97 959.88   Q 758.88 967.55 831.50 957.49   Q 845.06 955.61 869.21 951.65   Z"></path>
  <path fill="#28367f" d="   M 443.95 1043.97   L 443.79 983.42   L 443.95 1043.97   Z"></path>
  <path fill="#28367f" d="   M 1329.19 1024.01   L 1328.91 1051.00   Q 1328.06 1037.44 1329.19 1024.01   Z"></path>
  <path fill="#28367f" d="   M 444.95 1068.23   L 444.56 1060.74   L 444.95 1068.23   Z"></path>
  <path fill="#28367f" d="   M 1328.46 1061.26   L 1328.13 1065.44   L 1328.46 1061.26   Z"></path>
  <path fill="#28367f" d="   M 1327.63 1071.29   Q 1328.00 1073.93 1327.07 1074.86   L 1327.63 1071.29   Z"></path>
  <path fill="#28367f" d="   M 445.93 1077.28   Q 445.19 1076.42 445.55 1075.18   Q 446.09 1075.79 445.93 1077.28   Z"></path>
  <path fill="#28367f" d="   M 1326.73 1078.45   Q 1327.10 1079.43 1326.54 1080.05   Q 1326.23 1079.15 1326.73 1078.45   Z"></path>
  <path fill="#28367f" d="   M 446.69 1082.21   Q 445.84 1081.41 446.29 1079.97   Q 446.79 1081.03 446.69 1082.21   Z"></path>
  <path fill="#28367f" d="   M 1325.92 1083.46   Q 1326.07 1084.35 1325.77 1084.96   Q 1325.51 1084.21 1325.92 1083.46   Z"></path>
  <path fill="#28367f" d="   M 447.69 1086.73   Q 446.80 1085.54 447.08 1084.17   Q 447.86 1084.88 447.69 1086.73   Z"></path>
  <path fill="#28367f" d="   M 1325.13 1087.04   Q 1325.43 1088.94 1324.74 1089.50   Q 1324.64 1088.35 1325.13 1087.04   Z"></path>
  <path fill="#28367f" d="   M 448.27 1089.51   Q 447.63 1088.98 447.86 1087.46   Q 448.30 1088.46 448.27 1089.51   Z"></path>
  <path fill="#28367f" d="   M 448.63 1091.79   L 448.68 1092.49   L 448.63 1091.79   Z"></path>
  <path fill="#28367f" d="   M 1324.25 1091.62   Q 1324.76 1092.65 1323.73 1093.03   Q 1323.45 1092.22 1324.25 1091.62   Z"></path>
  <path fill="#28367f" d="   M 450.21 1096.79   Q 449.35 1095.94 449.52 1094.65   Q 450.60 1095.00 450.21 1096.79   Z"></path>
  <path fill="#28367f" d="   M 1322.61 1097.02   Q 1322.86 1098.37 1321.83 1099.55   Q 1321.63 1098.24 1322.61 1097.02   Z"></path>
  <path fill="#28367f" d="   M 1319.75 1105.27   Q 1319.52 1104.85 1320.07 1103.91   Q 1320.41 1105.14 1319.75 1105.27   Z"></path>
  <path fill="#28367f" d="   M 1319.36 1106.39   Q 1318.94 1108.92 1317.25 1111.10   Q 1317.68 1108.34 1319.36 1106.39   Z"></path>
  <path fill="#28367f" d="   M 1316.87 1112.06   Q 1316.27 1115.02 1314.46 1117.32   Q 1314.96 1114.32 1316.87 1112.06   Z"></path>
  <path fill="#28367f" d="   M 460.39 1121.63   Q 457.82 1118.44 457.00 1114.55   Q 459.35 1117.71 460.39 1121.63   Z"></path>
  <path fill="#28367f" d="   M 1314.30 1117.59   Q 1313.17 1121.43 1310.71 1124.41   Q 1311.85 1120.70 1314.30 1117.59   Z"></path>
  <path fill="#28367f" d="   M 1309.51 1126.52   Q 1309.04 1128.78 1307.25 1130.31   Q 1307.77 1128.07 1309.51 1126.52   Z"></path>
  <path fill="#28367f" d="   M 466.96 1132.50   Q 465.39 1131.18 464.69 1129.17   Q 466.72 1130.13 466.96 1132.50   Z"></path>
  <path fill="#28367f" d="   M 1305.15 1133.43   Q 1305.21 1134.43 1304.17 1134.97   Q 1303.98 1134.21 1305.15 1133.43   Z"></path>
  <path fill="#28367f" d="   M 1296.17 1144.84   Q 1295.31 1147.26 1292.61 1148.97   Q 1293.52 1146.49 1296.17 1144.84   Z"></path>
  <path fill="#28367f" d="   M 1289.24 1152.44   Q 1289.56 1152.66 1289.56 1152.99   Q 1289.57 1153.23 1289.30 1153.49   Q 1151.44 1291.19 1013.67 1428.99   Q 1013.32 1429.33 1012.87 1428.93   Q 1013.02 1429.17 1013.02 1428.73   Q 1013.01 1428.52 1013.16 1428.37   L 1289.24 1152.44   Z"></path>
  <path fill="#28367f" d="   M 743.47 1411.91   Q 743.23 1412.27 742.87 1412.26   Q 742.63 1412.25 742.35 1411.98   Q 654.06 1323.68 565.70 1235.44   Q 566.14 1234.64 566.75 1235.24   Q 655.12 1323.57 743.47 1411.91   Z"></path>
  <path fill="#28367f" d="   M 982.51 1459.29   Q 982.17 1459.45 981.74 1459.41   L 982.51 1459.29   Z"></path>
  <path fill="#28367f" d="   M 796.34 1463.61   Q 794.60 1463.11 793.25 1461.17   Q 795.36 1461.55 796.34 1463.61   Z"></path>
  <path fill="#28367f" d="   M 798.79 1465.68   Q 798.47 1465.59 798.17 1465.31   Q 798.72 1465.21 798.79 1465.68   Z"></path>
  <path fill="#28367f" d="   M 820.31 1479.32   Q 817.78 1478.78 815.87 1476.99   Q 818.47 1477.47 820.31 1479.32   Z"></path>
  <path fill="#28367f" d="   M 831.51 1484.51   Q 828.18 1484.15 825.71 1481.96   Q 828.89 1482.54 831.51 1484.51   Z"></path>
  <path fill="#28367f" d="   M 942.49 1484.14   Q 942.51 1484.61 940.99 1484.40   Q 941.71 1484.14 942.49 1484.14   Z"></path>
  <path fill="#28367f" d="   M 835.25 1486.01   Q 833.41 1486.08 831.92 1484.75   Q 833.86 1484.67 835.25 1486.01   Z"></path>
  <path fill="#28367f" d="   M 837.25 1486.87   Q 836.17 1487.03 835.94 1486.28   Q 837.22 1485.82 837.25 1486.87   Z"></path>
  <path fill="#28367f" d="   M 928.28 1489.22   Q 927.78 1489.52 927.03 1489.32   L 928.28 1489.22   Z"></path>
  <path fill="#28367f" d="   M 854.48 1491.84   Q 854.11 1491.92 853.74 1491.80   Q 854.09 1491.75 854.48 1491.84   Z"></path>
</svg>
